<?xml version="1.0" standalone="no"?>
<!DOCTYPE svg PUBLIC "-//W3C//DTD SVG 20010904//EN"
 "http://www.w3.org/TR/2001/REC-SVG-20010904/DTD/svg10.dtd">
<svg version="1.0" xmlns="http://www.w3.org/2000/svg"
 width="1600.000000pt" height="490.000000pt" viewBox="0 0 1600.000000 490.000000"
 preserveAspectRatio="xMidYMid meet">

<g transform="translate(0.000000,490.000000) scale(0.100000,-0.100000)"
fill="#000000" stroke="none">
<path d="M0 2654 l0 -2246 23 5 c12 3 80 9 152 12 72 4 146 8 165 10 66 7 196
14 365 20 176 7 222 10 290 19 22 3 130 8 240 11 110 3 247 10 305 16 58 6
179 13 270 15 91 2 215 9 275 16 61 7 164 13 230 14 195 3 405 16 411 25 3 5
76 9 162 9 86 0 202 5 257 10 55 6 199 14 320 20 121 5 238 14 260 19 22 5
108 10 190 10 83 0 184 5 225 12 41 6 146 12 232 14 86 2 180 8 210 13 29 6
139 13 243 16 105 4 191 10 193 15 2 5 74 10 160 11 86 1 173 3 192 5 19 2
127 9 240 15 113 6 209 15 215 20 5 4 37 7 70 6 33 -2 134 3 225 10 91 7 212
15 270 18 113 6 331 19 580 36 85 5 229 14 320 20 91 5 177 12 192 15 14 4 75
8 135 10 99 4 181 9 518 35 66 5 183 14 260 19 77 6 199 16 270 22 133 12 194
16 255 18 l35 1 -7 92 c-3 51 -6 140 -7 198 l0 105 20 -28 c19 -25 156 -104
165 -95 7 7 -9 118 -17 118 -5 0 -9 -5 -9 -12 0 -9 -3 -9 -11 -1 -15 15 -3 34
16 26 19 -7 19 1 0 36 -14 27 -112 86 -145 86 -11 0 -14 10 -12 34 1 18 -3 40
-9 47 -9 11 -8 18 4 32 12 13 14 21 6 29 -11 11 -10 62 9 268 6 71 8 78 20 58
8 -15 35 -29 78 -43 86 -26 102 -25 149 8 40 27 41 27 201 26 88 -1 252 -7
365 -13 112 -6 341 -18 509 -26 337 -18 308 -11 360 -85 l15 -21 200 16 c296
23 380 40 449 88 37 26 53 66 70 179 8 51 29 183 46 293 34 220 61 431 100
790 5 50 19 169 30 265 11 96 20 206 20 245 l0 70 -61 28 c-60 27 -79 28 -79
2 0 -8 -9 -19 -20 -25 -30 -16 -15 -30 31 -30 44 0 103 -25 94 -40 -3 -5 -18
-7 -34 -4 -26 5 -29 2 -46 -43 -10 -26 -23 -55 -30 -63 -7 -8 -20 -71 -29
-140 -22 -172 -37 -274 -41 -278 -8 -9 -65 11 -64 21 0 7 10 102 22 212 l23
200 29 0 c48 0 44 19 -5 31 -40 10 -43 12 -21 19 28 9 16 19 -41 35 -41 12
-77 -1 -110 -37 -9 -10 -23 -23 -32 -30 -8 -7 -18 -38 -21 -70 -4 -32 -11 -76
-15 -98 -5 -22 -14 -105 -21 -184 -13 -142 -12 -144 8 -161 14 -11 49 -19 104
-23 45 -4 84 -9 87 -11 2 -3 -1 -31 -7 -63 -17 -90 -49 -236 -56 -259 -10 -31
15 -47 53 -33 35 12 53 56 72 174 6 39 16 97 23 130 6 33 10 97 9 142 -2 64 3
99 24 165 24 75 44 118 44 93 1 -20 -32 -303 -47 -410 -29 -217 -44 -331 -48
-385 -3 -46 -33 -258 -61 -428 -5 -30 -11 -42 -20 -38 -7 3 -26 -1 -41 -9 -15
-8 -38 -15 -51 -15 -23 0 -113 -20 -121 -27 -3 -1 6 -14 18 -27 17 -18 19 -26
10 -32 -18 -11 -239 -16 -239 -5 0 12 37 24 49 17 8 -5 13 6 20 39 2 11 -171
35 -198 28 -10 -2 -37 22 -78 70 -35 41 -63 78 -63 82 0 4 20 4 44 1 45 -7 66
4 43 22 -6 5 -59 15 -117 22 -58 6 -109 15 -115 20 -5 5 -21 8 -35 8 -14 0
-68 7 -120 16 -52 9 -124 19 -158 23 -39 4 -66 11 -69 20 -8 21 -33 15 -33 -8
0 -21 -1 -22 -175 -15 -96 4 -183 9 -192 13 -16 5 -15 3 2 -14 17 -17 51 -24
215 -42 183 -20 362 -46 403 -58 16 -4 18 -1 12 16 -6 21 -4 21 52 15 68 -8
98 -31 145 -112 33 -58 33 -73 0 -42 -18 17 -22 18 -22 5 0 -18 6 -18 -165
-16 -192 3 -553 38 -583 57 -19 12 -57 15 -185 15 -189 -1 -257 -8 -257 -27 0
-10 -19 -12 -75 -11 -43 1 -75 6 -75 12 0 5 13 37 29 70 36 78 83 219 106 320
24 105 30 115 65 115 21 0 30 6 35 23 20 70 75 205 96 237 10 14 20 48 24 75
4 28 13 66 21 84 8 19 12 41 9 48 -2 8 0 11 5 8 6 -3 10 5 10 19 0 14 -4 26
-10 26 -15 0 -12 26 6 41 8 7 13 21 11 31 -3 10 0 39 7 65 14 55 4 102 -36
172 -24 42 -43 50 -79 31 -39 -22 -18 10 24 34 31 18 73 29 157 40 214 28 595
61 830 71 74 3 171 10 215 15 90 11 402 30 482 30 l51 0 7 43 c4 23 15 58 25
77 23 44 100 115 163 148 44 23 56 24 128 19 43 -4 79 -3 79 2 0 20 -30 30
-115 40 -70 7 -95 7 -110 -3 -14 -9 -55 -12 -140 -9 -181 5 -518 -2 -620 -13
-33 -4 -73 -8 -90 -10 -16 -1 -32 -3 -34 -3 -3 -1 7 -14 22 -29 15 -16 24 -32
20 -36 -8 -8 22 -6 312 19 176 16 383 27 348 19 -17 -4 -29 -25 -52 -90 -17
-47 -31 -89 -31 -95 0 -5 -13 -9 -30 -9 l-30 0 16 40 c9 23 15 42 13 44 -2 1
-22 1 -44 -1 -40 -5 -41 -6 -37 -39 3 -23 10 -34 21 -35 10 0 7 -4 -9 -10 -46
-18 -67 1 -75 71 -6 50 -10 59 -21 49 -7 -6 -19 -26 -26 -45 -9 -25 -18 -34
-35 -34 -25 0 -28 7 -13 44 5 15 6 28 0 31 -13 8 -40 -37 -47 -79 -5 -33 -4
-36 13 -30 13 5 16 4 9 -4 -10 -10 -36 -16 -62 -13 -16 1 -17 52 -2 84 6 13
23 31 39 40 31 19 80 23 80 6 0 -5 10 -3 22 5 30 22 65 20 80 -3 11 -18 13
-18 25 -3 7 9 13 25 13 36 0 19 -17 19 -211 0 l-57 -6 -32 -89 c-28 -79 -34
-89 -56 -89 -13 0 -24 6 -24 13 0 9 -10 12 -30 9 -17 -2 -37 1 -44 7 -20 17
-4 69 29 99 26 22 75 30 75 12 0 -5 -7 -10 -15 -10 -16 0 -45 -49 -45 -75 0
-10 7 -15 18 -13 19 3 48 56 58 104 l6 29 -49 -3 c-73 -4 -90 -10 -96 -32 -3
-12 -13 -20 -27 -20 -29 0 -70 -47 -70 -81 0 -24 4 -29 23 -29 13 0 28 5 35
12 6 6 14 9 18 6 3 -3 -8 -14 -25 -24 -27 -16 -28 -19 -13 -30 9 -7 14 -16 10
-20 -5 -4 -16 0 -27 10 -17 16 -21 16 -55 -5 -20 -12 -39 -19 -42 -16 -3 3 8
13 25 23 29 17 29 18 11 31 -11 8 -20 21 -20 29 0 32 32 75 70 94 55 28 52 44
-5 36 -29 -5 -45 -4 -45 3 0 10 31 14 98 15 32 0 27 13 -8 21 -36 8 -46 21
-30 40 11 13 4 14 -51 9 -91 -8 -232 -31 -399 -64 -80 -16 -167 -32 -194 -35
-26 -3 -67 -12 -90 -20 -22 -8 -58 -15 -78 -15 -37 0 -78 -27 -78 -50 0 -14
13 -13 28 2 26 26 10 -9 -18 -39 -34 -38 -40 -40 -40 -15 0 14 -2 15 -10 2
-13 -20 -13 -33 0 -25 25 16 4 -41 -45 -122 -20 -32 -35 -42 -35 -23 0 6 4 10
8 10 4 0 13 14 20 32 10 27 9 35 -5 50 -15 17 -15 18 5 18 26 0 28 12 7 30
-12 10 -18 10 -30 0 -10 -9 -19 -9 -27 -2 -7 6 -42 10 -78 11 l-65 0 -1 -67
c0 -37 -6 -87 -13 -110 -12 -44 -13 -44 -49 -37 -20 4 -54 8 -76 10 -46 5 -96
23 -96 37 0 13 32 44 53 51 9 4 17 13 17 21 0 12 -9 9 -42 -9 -48 -27 -58 -30
-58 -14 0 5 25 21 55 35 84 39 81 58 -6 34 -26 -7 -44 -22 -64 -53 -31 -46
-170 -193 -197 -208 -11 -6 -30 -4 -57 7 -40 16 -40 16 -68 -13 -24 -25 -32
-47 -48 -134 -19 -108 -32 -155 -40 -147 -7 6 42 244 55 267 5 11 17 27 26 36
15 15 15 17 -2 29 -16 12 -17 18 -6 54 7 22 26 55 42 72 17 18 30 36 30 40 0
5 16 18 35 30 19 12 35 25 35 30 0 5 10 12 23 16 18 6 13 10 -33 21 -30 7 -64
15 -75 17 -11 2 -36 6 -55 10 -19 3 -168 8 -330 11 -176 2 -311 8 -335 15 -22
6 -75 17 -117 25 -42 7 -82 16 -87 19 -13 9 -101 -14 -101 -26 0 -5 -5 -6 -11
-2 -6 3 -91 13 -188 20 -97 7 -201 20 -232 28 -71 19 -243 19 -334 -1 -39 -8
-146 -16 -245 -19 -96 -2 -185 -6 -197 -9 -13 -3 -62 8 -110 25 -76 26 -102
30 -193 30 -100 0 -108 -2 -178 -36 -63 -31 -80 -35 -115 -30 -55 9 -49 9
-147 1 -60 -5 -102 -15 -145 -35 -33 -15 -82 -37 -110 -49 -48 -21 -149 -68
-208 -97 -38 -19 -97 -18 -111 1 -7 10 -34 18 -71 22 -33 3 -64 9 -70 13 -5 3
-30 12 -55 20 -25 7 -49 17 -55 22 -14 13 -79 9 -116 -6 -19 -8 -59 -17 -89
-21 -30 -4 -60 -11 -65 -15 -6 -5 -48 -16 -95 -26 -84 -18 -232 -23 -340 -12
-30 3 -145 13 -255 22 -110 9 -220 23 -245 31 -69 22 -356 23 -440 1 -76 -20
-136 -40 -199 -66 -99 -39 -131 -43 -242 -27 -152 23 -201 27 -340 32 -68 3
-154 10 -192 16 -52 10 -89 10 -165 0 -83 -10 -105 -10 -155 4 -32 8 -68 15
-80 15 -13 0 -28 5 -34 11 -17 17 -196 59 -273 63 -25 2 -99 6 -166 11 -90 6
-130 5 -160 -5 -41 -14 -262 -21 -270 -8 -5 8 99 22 118 15 18 -6 50 12 43 24
-4 5 -31 9 -61 9 -60 0 -76 19 -16 21 41 2 107 16 80 18 -22 1 -23 17 -2 25
26 10 44 7 44 -9 0 -21 39 -40 53 -26 8 8 7 11 -4 11 -27 0 -47 33 -47 78 l-1
42 40 0 c37 0 39 -2 39 -30 0 -28 2 -30 40 -30 50 0 53 18 3 22 l-37 3 36 38
c34 35 38 37 102 37 37 0 66 4 66 10 0 6 7 10 15 10 8 0 15 -4 15 -10 0 -5 7
-10 15 -10 8 0 15 -9 15 -20 0 -11 -6 -20 -14 -20 -17 0 -23 -28 -17 -84 l3
-40 18 35 c11 20 16 45 13 62 -5 25 -3 27 25 27 22 0 32 -6 37 -20 8 -26 42
-26 50 0 4 11 10 18 15 15 4 -3 6 4 3 15 -4 14 1 21 20 25 14 4 30 4 36 1 5
-3 21 -2 36 4 21 8 30 7 43 -7 16 -16 17 -14 20 20 3 36 4 37 43 37 28 0 39 4
39 15 0 8 9 15 20 15 11 0 20 4 20 9 0 5 -18 9 -40 9 -22 0 -40 -3 -40 -9 0
-5 -11 -9 -25 -9 -14 0 -25 6 -25 14 0 9 8 12 25 8 22 -4 25 -1 25 27 0 24 -4
31 -20 31 -12 0 -20 7 -20 16 0 14 10 15 80 9 77 -7 80 -6 80 14 0 18 6 21 40
21 23 0 40 5 40 11 0 17 71 1 86 -19 10 -14 13 -13 23 6 6 12 21 22 31 22 24
0 27 28 4 45 -18 12 -11 60 7 50 5 -4 9 2 10 12 0 13 3 12 11 -7 10 -24 10
-24 18 -5 5 11 9 30 9 43 1 13 7 22 14 21 39 -5 44 2 54 64 11 64 1 126 -12
81 -7 -22 -19 -25 -42 -11 -20 12 -15 27 7 27 11 0 20 5 20 10 0 6 18 10 40
10 74 0 40 15 -40 18 -50 1 -80 -1 -80 -8 0 -5 -9 -10 -20 -10 -22 0 -27 16
-7 23 6 2 -3 11 -20 21 -18 9 -33 20 -33 25 0 4 18 13 39 20 32 9 41 17 44 39
l4 27 2 -27 c0 -16 7 -28 15 -28 18 0 38 25 28 35 -4 4 9 5 28 1 19 -3 28 -3
20 1 -8 3 -17 10 -20 14 -10 14 -95 16 -92 2 1 -7 -2 -13 -8 -13 -5 0 -10 7
-10 15 0 9 -9 15 -25 15 -14 0 -25 -3 -25 -7 0 -5 -89 -7 -198 -6 -108 0 -312
2 -452 2 -189 1 -250 4 -236 12 10 6 38 9 63 6 34 -3 43 -2 39 8 -6 17 140 28
376 29 92 1 161 3 153 6 -8 3 23 5 68 5 45 0 125 4 177 8 52 5 154 9 227 11
73 1 136 5 140 10 4 4 -3 7 -17 5 -14 -2 -31 0 -38 4 -20 13 -3 27 26 21 15
-3 38 -1 52 5 17 6 -388 10 -1258 10 l-1282 1 0 -2246z m2000 1986 c0 -21 -15
-27 -25 -10 -7 12 2 30 16 30 5 0 9 -9 9 -20z m160 10 c0 -12 -24 -12 -60 0
-21 7 -19 8 18 9 23 1 42 -3 42 -9z m0 -40 c0 -17 -5 -19 -32 -14 -57 10 -65
17 -28 24 56 12 60 11 60 -10z m108 -55 c-3 -3 -9 2 -12 12 -6 14 -5 15 5 6 7
-7 10 -15 7 -18z m-94 -240 c16 -12 17 -17 6 -30 -21 -25 -40 -18 -40 15 0 33
6 36 34 15z m-88 -21 c-3 -9 -6 -20 -6 -25 0 -5 -38 -9 -84 -9 -78 0 -84 1
-79 19 5 20 26 25 132 29 36 2 42 -1 37 -14z m-346 -139 c0 -14 -4 -25 -10
-25 -5 0 -10 11 -10 25 0 14 5 25 10 25 6 0 10 -11 10 -25z m39 -38 c8 -10 7
-14 -4 -14 -8 0 -15 6 -15 14 0 7 2 13 4 13 2 0 9 -6 15 -13z m-39 -7 c0 -5
-4 -10 -10 -10 -5 0 -10 5 -10 10 0 6 5 10 10 10 6 0 10 -4 10 -10z m-120 -20
c0 -5 -4 -10 -10 -10 -5 0 -10 5 -10 10 0 6 5 10 10 10 6 0 10 -4 10 -10z m60
-60 c0 -5 -4 -10 -10 -10 -5 0 -10 5 -10 10 0 6 5 10 10 10 6 0 10 -4 10 -10z
m-560 -75 c0 -8 5 -15 11 -15 5 0 7 -5 3 -12 -6 -9 -9 -9 -12 0 -2 7 -21 12
-43 12 -28 0 -39 4 -39 15 0 11 11 15 40 15 29 0 40 -4 40 -15z m52 3 c-9 -9
-15 -9 -24 0 -9 9 -7 12 12 12 19 0 21 -3 12 -12z m9146 -16 c-19 -2 -27 -9
-26 -20 3 -38 -4 -50 -37 -68 -23 -12 -31 -22 -25 -28 6 -6 10 -20 10 -33 0
-15 6 -23 18 -24 12 0 10 -3 -8 -10 -40 -16 -70 -3 -70 30 0 16 -3 36 -6 45
-4 11 0 16 12 16 26 0 54 30 54 57 0 19 -5 23 -28 23 -38 0 -45 -9 -78 -106
-27 -78 -31 -84 -56 -84 l-27 0 29 81 c17 44 30 85 30 90 0 20 -41 8 -52 -16
-7 -16 -19 -25 -33 -25 -35 0 -79 -64 -68 -97 6 -16 45 -17 61 -1 6 6 14 9 18
6 3 -4 -8 -14 -25 -22 -60 -31 -120 -12 -108 34 4 17 0 20 -32 20 l-38 0 11
-35 c6 -19 18 -35 26 -35 12 -1 11 -3 -3 -11 -10 -6 -30 -9 -45 -7 -22 2 -28
9 -30 33 -2 17 -8 35 -13 41 -11 13 -2 24 19 24 24 0 52 31 52 58 0 21 -3 23
-25 18 -14 -4 -25 -2 -25 4 0 5 8 10 18 10 9 0 55 4 102 9 47 5 132 12 190 16
58 3 130 9 160 14 30 4 60 5 65 2 6 -3 -2 -7 -17 -9z m186 -67 c-4 -8 -11 -12
-16 -9 -6 4 -5 10 3 15 19 12 19 11 13 -6z m-9463 -18 c-10 -9 -11 -8 -5 6 3
10 9 15 12 12 3 -3 0 -11 -7 -18z m-164 -23 c-3 -3 -12 -4 -19 -1 -8 3 -5 6 6
6 11 1 17 -2 13 -5z m63 -9 c10 -12 9 -15 -8 -15 -11 0 -25 7 -32 15 -10 12
-9 15 8 15 11 0 25 -7 32 -15z m-40 -34 c0 -15 -17 -22 -36 -14 -16 6 -16 7 2
14 27 11 34 10 34 0z m-279 -21 c10 -6 19 -15 19 -20 0 -11 -74 0 -78 11 -2 5
-12 4 -23 -2 -11 -5 -25 -7 -31 -3 -30 19 79 32 113 14z m176 -6 c34 5 44 4
33 -3 -8 -6 -36 -11 -62 -11 -38 0 -48 4 -48 16 0 13 3 14 15 4 10 -8 31 -10
62 -6z m153 1 c-7 -8 -17 -15 -22 -15 -6 0 -5 7 2 15 7 8 17 15 22 15 6 0 5
-7 -2 -15z m8450 -17 c10 -6 -1 -6 -30 -2 -25 3 -49 10 -54 15 -12 11 64 -1
84 -13z m-9083 6 c-3 -3 -12 -4 -19 -1 -8 3 -5 6 6 6 11 1 17 -2 13 -5z m8422
-4 c-6 -5 -18 -6 -26 -3 -19 8 -16 11 13 11 17 0 22 -3 13 -8z m41 -4 c0 -2
-7 -7 -16 -10 -8 -3 -12 -2 -9 4 6 10 25 14 25 6z m1271 -23 c12 -16 12 -17
-2 -6 -9 7 -20 9 -24 5 -5 -4 -5 -1 -1 6 9 16 11 15 27 -5z m-131 -13 c0 -5
-8 -10 -17 -10 -15 0 -16 2 -3 10 19 12 20 12 20 0z m1350 -55 c0 -8 -4 -15
-10 -15 -5 0 -10 7 -10 15 0 8 5 15 10 15 6 0 10 -7 10 -15z m-40 -50 c0 -8
-5 -15 -11 -15 -5 0 -7 -4 -4 -10 3 -5 -1 -20 -8 -32 -17 -26 -33 -133 -17
-108 7 11 10 7 10 -17 0 -18 -5 -33 -11 -33 -5 0 -7 -4 -4 -10 3 -5 1 -10 -4
-10 -6 0 -11 -12 -11 -27 -1 -16 -8 -39 -16 -53 -14 -24 -15 -22 -9 35 6 56
17 138 31 230 4 22 11 46 16 53 14 17 38 15 38 -3z m-6530 -95 c0 -5 -2 -10
-4 -10 -3 0 -8 5 -11 10 -3 6 -1 10 4 10 6 0 11 -4 11 -10z m4683 -33 c-3 -18
-19 -61 -35 -95 -15 -35 -28 -69 -28 -75 0 -7 -16 -50 -35 -97 -19 -46 -35
-92 -35 -101 0 -10 -6 -21 -12 -25 -7 -4 -10 -4 -6 1 4 4 4 13 -1 19 -12 14
10 86 25 86 7 0 14 17 17 38 5 40 21 89 43 135 8 16 14 37 14 48 0 24 43 108
52 103 4 -3 4 -19 1 -37z m-4590 5 c7 -16 18 -27 25 -25 6 3 12 0 12 -6 0 -6
6 -11 14 -11 8 0 24 -13 36 -30 12 -16 25 -30 30 -30 5 0 23 -13 39 -29 28
-28 29 -30 11 -36 -10 -3 -40 -4 -66 -1 -52 7 -84 32 -84 66 0 12 -4 19 -8 16
-4 -2 -14 -1 -22 4 -11 7 -11 11 -1 24 11 14 11 16 -5 16 -13 0 -23 11 -29 33
-10 31 -9 33 13 35 17 1 26 -6 35 -26z m4623 -123 c25 -82 14 -254 -17 -264
-9 -3 -25 -28 -35 -55 -22 -60 -45 -68 -38 -12 3 20 10 60 15 87 5 28 9 86 10
130 2 79 25 168 43 162 5 -2 15 -23 22 -48z m1789 -71 c21 -9 25 -18 25 -54 0
-24 -3 -45 -7 -47 -5 -2 -27 -2 -50 1 -39 4 -43 7 -42 31 0 14 3 20 6 14 8
-22 23 -14 23 11 0 24 9 56 16 56 2 0 15 -5 29 -12z m-2019 -406 c-9 -33 -16
-69 -16 -81 0 -50 -129 -554 -146 -570 -13 -12 7 82 80 374 24 99 47 198 51
220 10 61 39 152 43 134 2 -10 -4 -44 -12 -77z m1304 -623 c0 -6 -4 -7 -10 -4
-5 3 -10 11 -10 16 0 6 5 7 10 4 6 -3 10 -11 10 -16z m79 -40 c19 -22 31 -43
27 -47 -5 -4 -19 7 -32 23 -57 69 -52 90 5 24z m76 -147 c4 -10 -6 -5 -24 12
-17 17 -31 31 -31 33 0 10 49 -31 55 -45z m-1668 -24 c-3 -7 -5 -2 -5 12 0 14
2 19 5 13 2 -7 2 -19 0 -25z m2168 2 c-3 -5 -10 -10 -16 -10 -5 0 -9 5 -9 10
0 6 7 10 16 10 8 0 12 -4 9 -10z m-2105 -13 c-14 -8 -27 -12 -30 -10 -7 6 23
23 40 23 8 0 4 -6 -10 -13z m1638 -12 c-3 -3 -9 2 -12 12 -6 14 -5 15 5 6 7
-7 10 -15 7 -18z m-1311 -1 c-3 -3 -12 -4 -19 -1 -8 3 -5 6 6 6 11 1 17 -2 13
-5z m553 -4 c0 -16 -41 -33 -52 -22 -6 6 -7 15 -4 21 9 14 56 15 56 1z m1028
-46 c-9 -10 -21 -13 -29 -8 -9 5 -8 9 7 15 31 12 39 10 22 -7z m79 10 c-3 -3
-12 -4 -19 -1 -8 3 -5 6 6 6 11 1 17 -2 13 -5z m-262 -44 c3 -5 -1 -10 -10
-10 -9 0 -13 5 -10 10 3 6 8 10 10 10 2 0 7 -4 10 -10z m90 -8 c-3 -3 -11 0
-18 7 -9 10 -8 11 6 5 10 -3 15 -9 12 -12z m68 -12 c-3 -11 -7 -20 -9 -20 -2
0 -4 9 -4 20 0 11 4 20 9 20 5 0 7 -9 4 -20z m-258 -10 c3 -5 1 -10 -4 -10 -6
0 -11 5 -11 10 0 6 2 10 4 10 3 0 8 -4 11 -10z m89 -52 c-11 -17 -22 -7 -26
23 l-5 31 18 -23 c9 -13 15 -27 13 -31z m145 27 c12 4 21 2 21 -4 0 -6 -4 -11
-9 -11 -5 0 -23 -3 -41 -6 -31 -7 -31 -6 -19 14 8 13 16 17 20 11 4 -6 16 -8
28 -4z m-5232 -1 c-3 -3 -12 -4 -19 -1 -8 3 -5 6 6 6 11 1 17 -2 13 -5z m5300
-10 c-3 -3 -12 -4 -19 -1 -8 3 -5 6 6 6 11 1 17 -2 13 -5z m-292 -14 c3 -5 -1
-10 -9 -10 -9 0 -16 5 -16 10 0 6 4 10 9 10 6 0 13 -4 16 -10z m-1728 -422
c-3 -8 -6 -5 -6 6 -1 11 2 17 5 13 3 -3 4 -12 1 -19z m0 -40 c-3 -8 -6 -5 -6
6 -1 11 2 17 5 13 3 -3 4 -12 1 -19z m103 -40 c0 -22 -19 -33 -33 -19 -7 7 -7
18 2 38 10 22 14 24 22 12 5 -7 9 -22 9 -31z m-1505 -128 c3 -5 1 -10 -4 -10
-6 0 -11 5 -11 10 0 6 2 10 4 10 3 0 8 -4 11 -10z m930 -9 c-3 -6 -11 -11 -17
-11 -6 0 -6 6 2 15 14 17 26 13 15 -4z m-840 -21 c3 -5 1 -10 -4 -10 -6 0 -11
5 -11 10 0 6 2 10 4 10 3 0 8 -4 11 -10z m-4365 -169 c-20 -11 -164 -21 -153
-10 4 4 37 10 73 12 36 2 72 4 80 5 13 1 13 0 0 -7z m385 -1 c-22 -5 -44 -4
-49 1 -6 5 10 9 40 8 l49 -1 -40 -8z m-58 -16 c-3 -3 -12 -4 -19 -1 -8 3 -5 6
6 6 11 1 17 -2 13 -5z m-213 -14 c-6 -6 -21 -6 -39 -1 -30 9 -30 9 10 10 25 1
36 -2 29 -9z m69 3 c-7 -2 -19 -2 -25 0 -7 3 -2 5 12 5 14 0 19 -2 13 -5z
m-2296 -39 c-3 -3 -12 -4 -19 -1 -8 3 -5 6 6 6 11 1 17 -2 13 -5z m680 -10
c-3 -3 -12 -4 -19 -1 -8 3 -5 6 6 6 11 1 17 -2 13 -5z m-680 -30 c-3 -3 -12
-4 -19 -1 -8 3 -5 6 6 6 11 1 17 -2 13 -5z m-650 -20 c-3 -3 -12 -4 -19 -1 -8
3 -5 6 6 6 11 1 17 -2 13 -5z m1440 0 c-3 -3 -12 -4 -19 -1 -8 3 -5 6 6 6 11
1 17 -2 13 -5z m-447 -124 c0 -5 -2 -10 -4 -10 -3 0 -8 5 -11 10 -3 6 -1 10 4
10 6 0 11 -4 11 -10z m-813 -16 c-3 -3 -12 -4 -19 -1 -8 3 -5 6 6 6 11 1 17
-2 13 -5z m2603 -4 c0 -5 -5 -10 -11 -10 -5 0 -7 5 -4 10 3 6 8 10 11 10 2 0
4 -4 4 -10z m-780 -40 c0 -5 -4 -10 -10 -10 -5 0 -10 5 -10 10 0 6 5 10 10 10
6 0 10 -4 10 -10z m-30 -24 c0 -3 -4 -8 -10 -11 -5 -3 -10 -1 -10 4 0 6 5 11
10 11 6 0 10 -2 10 -4z m477 -12 c-3 -3 -12 -4 -19 -1 -8 3 -5 6 6 6 11 1 17
-2 13 -5z m-2372 -32 c-3 -3 -11 0 -18 7 -9 10 -8 11 6 5 10 -3 15 -9 12 -12z
m782 3 c0 -8 -4 -12 -9 -9 -5 3 -6 10 -3 15 9 13 12 11 12 -6z m-1090 -1 c-3
-3 -12 -4 -19 -1 -8 3 -5 6 6 6 11 1 17 -2 13 -5z m2388 -22 c-3 -3 -11 0 -18
7 -9 10 -8 11 6 5 10 -3 15 -9 12 -12z m-2625 -32 c0 -5 -5 -10 -11 -10 -5 0
-7 5 -4 10 3 6 8 10 11 10 2 0 4 -4 4 -10z m670 -24 c0 -2 -7 -7 -16 -10 -8
-3 -12 -2 -9 4 6 10 25 14 25 6z m734 -5 c4 -5 -3 -7 -14 -4 -23 6 -26 13 -6
13 8 0 17 -4 20 -9z m-49 -19 c-3 -3 -11 0 -18 7 -9 10 -8 11 6 5 10 -3 15 -9
12 -12z m-695 -37 c0 -11 -29 -11 -33 -1 -4 10 1 12 14 9 10 -3 19 -7 19 -8z
m-53 -1 c-3 -3 -12 -4 -19 -1 -8 3 -5 6 6 6 11 1 17 -2 13 -5z m-244 -18 c4
-10 1 -13 -8 -9 -8 3 -12 9 -9 14 7 12 11 11 17 -5z m-243 -20 c0 -3 -4 -8
-10 -11 -5 -3 -10 -1 -10 4 0 6 5 11 10 11 6 0 10 -2 10 -4z"/>
<path d="M9928 3903 c-20 -3 -28 -10 -28 -25 0 -12 -8 -30 -17 -40 -16 -17
-15 -18 5 -15 12 2 29 10 39 19 10 9 33 23 51 32 57 29 36 42 -50 29z"/>
<path d="M2381 4483 c0 -10 4 -27 9 -38 8 -19 9 -18 9 4 1 20 3 21 16 11 13
-11 15 -8 15 14 0 21 -5 26 -25 26 -17 0 -25 -5 -24 -17z"/>
<path d="M2328 4333 c6 -2 18 -2 25 0 6 3 1 5 -13 5 -14 0 -19 -2 -12 -5z"/>
<path d="M11450 4128 c0 -4 14 -8 30 -8 17 0 30 4 30 8 0 5 -13 9 -30 9 -16 0
-30 -4 -30 -9z"/>
<path d="M11704 4066 c-9 -23 0 -79 14 -84 6 -2 12 3 12 12 0 9 6 16 13 17 6
0 2 4 -11 10 -13 5 -20 13 -17 19 9 15 35 12 41 -4 3 -8 12 -12 20 -9 8 3 14
0 14 -7 0 -7 7 -10 16 -6 9 4 22 3 28 -2 6 -4 49 -18 96 -31 47 -12 111 -32
143 -43 58 -20 93 -20 40 0 -15 5 -53 19 -83 31 -30 11 -107 37 -170 57 -63
20 -119 40 -124 45 -14 13 -26 11 -32 -5z"/>
<path d="M2240 4054 c0 -8 5 -12 10 -9 6 4 8 11 5 16 -9 14 -15 11 -15 -7z"/>
<path d="M1360 3990 c0 -17 7 -20 40 -20 33 0 40 3 40 20 0 17 -7 20 -40 20
-33 0 -40 -3 -40 -20z"/>
<path d="M1756 3983 c-6 -14 -5 -15 5 -6 7 7 10 15 7 18 -3 3 -9 -2 -12 -12z"/>
<path d="M11047 3980 c3 -12 -2 -29 -12 -40 -18 -19 -17 -20 12 -20 26 0 32 6
46 40 l15 40 -33 0 c-28 0 -32 -3 -28 -20z"/>
<path d="M11780 3984 c0 -8 5 -12 10 -9 6 3 10 10 10 16 0 5 -4 9 -10 9 -5 0
-10 -7 -10 -16z"/>
<path d="M11800 3970 c0 -5 7 -10 15 -10 8 0 15 5 15 10 0 6 -7 10 -15 10 -8
0 -15 -4 -15 -10z"/>
<path d="M11665 3868 l0 -103 -36 0 -37 0 29 -33 c16 -18 29 -36 29 -41 0 -18
56 -32 84 -21 36 13 41 13 26 -4 -6 -8 -21 -16 -33 -18 -15 -2 -23 -13 -28
-37 -4 -19 -5 -40 -2 -47 4 -11 49 -29 65 -26 8 2 134 -35 163 -48 11 -5 45
-14 75 -21 30 -7 59 -16 65 -21 5 -4 17 -8 27 -8 10 0 26 -4 36 -9 24 -13 55
-25 68 -26 6 0 19 -6 28 -14 9 -8 18 -12 21 -10 6 6 -22 189 -30 197 -11 11
-24 -22 -19 -44 9 -35 -13 -37 -30 -3 -19 37 -20 42 -6 34 17 -10 11 11 -9 37
-12 15 -18 33 -15 45 6 22 -17 45 -24 25 -6 -18 -39 -14 -47 5 -3 10 -1 19 5
21 17 6 -20 42 -42 42 -11 0 -22 -9 -25 -20 -3 -11 -12 -20 -20 -20 -15 0 -14
20 3 64 5 12 0 16 -19 16 -14 0 -27 6 -29 12 -3 7 -13 13 -23 13 -11 0 -21 9
-25 22 -3 13 -14 33 -25 45 -11 13 -23 30 -28 38 -5 10 -6 9 -3 -6 3 -17 -1
-20 -15 -17 -11 3 -19 13 -19 22 0 19 -39 65 -47 57 -3 -3 -1 -11 5 -19 6 -7
14 -32 18 -55 4 -23 11 -45 15 -48 14 -8 11 -24 -5 -24 -18 0 -46 44 -46 73 0
28 -39 77 -60 77 -12 0 -15 -19 -15 -102z m125 -172 c-7 -7 -10 4 -9 30 1 39
1 39 10 9 5 -18 5 -33 -1 -39z m207 -38 c-3 -8 -6 -5 -6 6 -1 11 2 17 5 13 3
-3 4 -12 1 -19z m-230 -40 c-3 -8 -6 -5 -6 6 -1 11 2 17 5 13 3 -3 4 -12 1
-19z m-17 -33 c0 -8 -4 -15 -10 -15 -5 0 -10 7 -10 15 0 8 5 15 10 15 6 0 10
-7 10 -15z m463 -108 c3 -8 1 -20 -4 -28 -6 -10 -9 -7 -9 14 0 29 5 35 13 14z"/>
<path d="M5688 3933 c6 -2 18 -2 25 0 6 3 1 5 -13 5 -14 0 -19 -2 -12 -5z"/>
<path d="M1415 3917 c-11 -7 -24 -18 -28 -24 -5 -8 -29 -13 -57 -13 -47 0 -50
-2 -50 -25 0 -16 6 -25 16 -25 10 0 14 6 10 15 -4 11 1 15 17 14 12 0 16 -3
10 -6 -21 -8 -15 -23 10 -23 18 0 19 -2 7 -10 -11 -7 -8 -9 15 -9 17 1 41 4
55 8 23 7 21 8 -17 15 -41 7 -60 26 -28 26 9 0 18 7 22 16 3 9 13 14 24 11 15
-4 19 0 19 19 0 13 -1 24 -2 23 -2 0 -12 -6 -23 -12z"/>
<path d="M12160 3900 c0 -11 8 -23 18 -27 9 -3 98 -37 197 -76 99 -38 272
-104 385 -147 113 -43 221 -85 240 -94 46 -20 354 -141 650 -254 241 -92 552
-215 650 -256 30 -13 77 -32 103 -42 27 -11 53 -26 58 -36 5 -10 16 -14 29
-11 22 6 26 -7 9 -24 -15 -15 -2 -53 18 -53 10 0 13 6 9 16 -9 23 3 37 20 23
7 -6 25 -8 39 -5 14 3 33 2 42 -3 20 -10 45 -20 118 -48 40 -16 49 -24 47 -40
-2 -12 2 -24 8 -28 5 -3 10 -18 10 -33 0 -42 16 -60 23 -25 3 15 1 32 -4 38
-10 10 -13 55 -4 55 4 0 19 -7 34 -15 16 -8 46 -21 67 -29 109 -40 172 -65
235 -95 25 -11 54 -21 63 -21 21 0 35 -35 52 -140 8 -47 18 -103 23 -125 6
-25 6 -44 0 -51 -6 -8 -4 -24 8 -48 24 -50 10 -71 -46 -70 -33 1 -39 -2 -30
-13 9 -10 2 -13 -39 -13 -48 0 -51 2 -54 27 -3 31 -35 44 -49 21 -12 -18 -77
-24 -146 -12 -34 5 -43 4 -43 -8 0 -10 29 -19 108 -32 59 -9 152 -26 207 -38
55 -11 105 -21 110 -21 43 -7 -19 496 -67 537 -7 7 -69 34 -138 61 -69 27
-195 77 -280 113 -85 35 -184 74 -220 87 -36 13 -126 49 -200 80 -136 57 -503
204 -725 290 -244 94 -285 111 -540 213 -143 57 -294 117 -335 132 -74 28
-314 123 -539 214 -63 25 -116 46 -118 46 -2 0 -3 -9 -3 -20z m3160 -1711 c0
-14 -26 -10 -39 5 -9 11 -9 15 1 19 14 5 38 -10 38 -24z"/>
<path d="M13235 3845 c-29 -9 -96 -15 -160 -15 -60 0 -141 -6 -180 -13 -68
-12 -69 -13 -40 -24 17 -6 68 -28 115 -48 47 -20 119 -50 160 -67 41 -17 82
-36 90 -43 8 -7 69 -36 135 -65 66 -28 138 -60 160 -70 112 -50 143 -59 230
-63 63 -3 102 -10 130 -24 22 -11 67 -34 100 -50 33 -17 98 -47 145 -68 47
-20 113 -50 148 -66 34 -16 64 -29 67 -29 2 0 35 -14 72 -31 38 -17 108 -49
157 -70 50 -22 112 -58 139 -80 36 -31 51 -39 60 -30 8 8 8 11 0 11 -6 0 -13
6 -16 14 -4 10 0 12 15 8 11 -3 23 -14 26 -24 4 -15 10 -18 30 -13 21 5 24 4
14 -8 -17 -20 8 -42 27 -24 11 9 14 9 18 0 7 -19 58 -16 76 5 40 44 6 98 -44
71 -17 -9 -39 -8 -95 1 -99 17 -86 34 20 26 75 -5 159 2 214 19 13 4 22 3 22
-3 0 -5 -11 -13 -25 -16 -35 -9 -31 -26 6 -26 27 0 30 -2 19 -15 -12 -14 -5
-20 22 -16 8 1 32 -61 28 -74 -2 -5 -2 -21 -1 -34 l1 -25 -22 21 c-25 22 -68
36 -68 22 0 -5 -19 -9 -42 -10 l-43 -1 39 -10 c29 -8 44 -8 59 1 10 7 20 11
21 9 1 -2 8 -12 16 -23 12 -17 12 -18 0 -7 -17 14 -40 16 -40 3 0 -6 26 -18
58 -28 31 -10 63 -25 70 -35 6 -9 27 -21 45 -27 53 -18 93 -113 122 -286 8
-49 15 -124 16 -165 0 -41 4 -97 7 -124 l7 -49 55 -1 c66 -1 80 -9 78 -41 -2
-22 -7 -25 -45 -25 -24 0 -43 -4 -43 -10 0 -5 7 -10 15 -10 8 0 15 -4 15 -10
0 -5 -6 -10 -13 -10 -8 0 -19 -11 -25 -25 -6 -14 -18 -25 -27 -25 -18 0 -19
-9 -1 -33 11 -14 19 -16 40 -7 21 8 28 7 32 -5 9 -23 33 -18 27 5 -4 16 0 20
22 20 23 0 26 -2 15 -15 -10 -12 -8 -18 11 -35 13 -10 18 -19 12 -20 -25 0
-13 -19 15 -23 22 -3 21 -4 -10 -6 -21 0 -38 4 -40 11 -4 10 -10 10 -29 1 -24
-12 -24 -12 -1 -12 26 -1 29 -16 5 -30 -15 -8 -14 -10 10 -16 15 -4 37 -5 48
-2 15 4 19 2 15 -8 -3 -9 4 -15 22 -17 19 -2 28 -10 30 -25 3 -20 -1 -23 -30
-24 -33 -2 -32 -2 7 -9 33 -6 35 -7 10 -8 -16 0 -52 3 -80 8 -45 7 -47 8 -15
10 l35 2 -40 9 c-22 4 -57 8 -78 8 -26 1 -36 5 -31 12 4 7 1 10 -7 7 -8 -3
-14 -9 -14 -14 0 -5 -3 -13 -6 -19 -4 -5 -7 -30 -7 -55 -2 -117 -21 -440 -26
-449 -3 -5 -44 -35 -90 -66 -65 -44 -99 -60 -151 -71 -38 -8 -69 -13 -71 -12
-1 2 2 23 6 48 12 62 12 266 0 331 -13 70 -50 159 -66 159 -15 0 -71 -69 -72
-90 -3 -37 -27 -110 -36 -107 -5 2 -16 32 -25 68 -18 71 -44 119 -64 119 -18
0 -70 -58 -87 -95 -30 -69 -66 -251 -80 -410 -6 -71 -12 -131 -13 -132 -1 -1
-50 -11 -107 -22 -146 -29 -206 -42 -270 -58 -72 -19 -686 -166 -915 -219 -60
-15 -130 -32 -155 -39 -24 -8 -48 -11 -53 -8 -5 3 -5 22 -2 43 20 120 28 337
16 445 -39 347 -173 515 -347 436 -94 -43 -174 -164 -242 -366 -55 -164 -74
-273 -93 -535 -7 -91 -17 -170 -23 -176 -13 -13 -266 -67 -274 -59 -2 2 6 124
17 272 29 383 39 543 51 843 6 146 13 275 16 288 l5 23 172 -5 c537 -19 1551
-46 1877 -51 113 -1 317 -8 453 -15 222 -11 270 -10 256 4 -9 9 -469 27 -804
31 -513 7 -747 20 -781 41 -25 17 -25 18 -6 25 11 4 23 13 27 19 6 9 2 9 -13
1 -11 -6 -25 -11 -31 -11 -19 0 -41 32 -41 61 0 46 17 69 49 69 24 0 29 5 33
30 4 30 4 30 -41 29 -25 -1 -38 -3 -28 -6 20 -5 23 -43 3 -43 -7 0 -25 -9 -40
-21 -38 -30 -36 -80 6 -112 l31 -25 -29 -15 c-20 -10 -53 -14 -109 -11 -44 1
-273 8 -510 14 -236 6 -440 13 -451 16 -16 3 -23 13 -27 41 -5 37 -2 40 122
163 171 170 351 308 461 355 19 9 49 22 65 30 53 26 208 57 280 57 67 0 213
-23 490 -76 72 -13 146 -27 165 -29 19 -3 80 -15 135 -26 140 -30 242 -49 295
-56 25 -3 63 -10 85 -15 22 -5 83 -16 135 -25 52 -9 124 -23 160 -30 36 -7 99
-19 140 -25 41 -7 90 -17 108 -22 45 -13 62 -5 62 32 0 35 -12 39 -32 8 -19
-29 -48 -18 -49 19 0 27 -1 27 -9 6 -10 -26 -5 -25 -120 -10 l-84 12 -8 35
c-4 19 -10 71 -12 115 -4 74 -18 135 -30 135 -14 0 -26 -41 -17 -57 5 -10 11
-55 14 -100 4 -82 4 -83 -19 -83 -14 0 -33 -5 -44 -12 -15 -9 -24 -9 -42 0
-13 7 -34 14 -48 17 -14 3 -32 14 -41 25 -15 17 -21 18 -47 9 -17 -6 -41 -9
-53 -7 -23 3 -23 6 -25 128 -1 69 -6 133 -9 143 -4 10 -5 21 -1 24 3 3 1 12
-5 19 -5 6 -11 51 -13 98 -4 85 -15 116 -42 116 -18 0 -19 -66 -1 -74 10 -5
10 -7 0 -12 -15 -7 -17 -54 -3 -54 6 0 10 -7 10 -15 0 -8 -4 -15 -10 -15 -16
0 -11 -28 6 -38 11 -6 17 -23 17 -51 0 -23 4 -44 9 -47 5 -3 5 -11 -1 -18 -7
-8 -7 -31 -2 -62 4 -28 5 -67 3 -87 -4 -31 -7 -36 -26 -33 -11 3 -59 10 -106
16 -77 10 -133 21 -257 51 l-43 11 -1 96 c-2 144 -5 183 -13 225 -7 31 -12 37
-35 37 l-26 0 2 -82 c4 -121 3 -251 -2 -259 -5 -7 -75 4 -94 15 -8 5 -10 18
-6 36 7 33 -7 47 -25 25 -10 -12 -10 -18 0 -30 21 -25 3 -30 -58 -16 -31 7
-73 15 -92 16 -32 3 -152 24 -238 43 l-33 7 -6 180 c-3 99 -8 182 -11 185 -4
3 -8 32 -10 64 -2 33 -7 67 -12 75 -5 10 -7 -15 -4 -65 4 -71 2 -84 -17 -107
-11 -15 -16 -27 -10 -27 6 0 11 -11 11 -25 0 -14 6 -25 13 -25 6 0 4 -5 -6
-11 -12 -7 -15 -17 -11 -35 4 -14 1 -31 -6 -39 -10 -12 -10 -18 0 -30 10 -13
11 -20 1 -39 -7 -13 -12 -34 -11 -47 4 -48 5 -48 -105 -64 -11 -1 -27 -5 -35
-9 -8 -3 -60 -21 -115 -40 -55 -19 -104 -41 -110 -48 -5 -7 -30 -23 -55 -36
-54 -27 -86 -48 -196 -130 -47 -34 -89 -62 -94 -62 -6 0 -10 -4 -10 -8 0 -4
-10 -22 -23 -39 l-22 -31 3 392 c2 277 -1 430 -10 525 l-14 133 23 15 c18 12
21 21 16 46 -8 42 -22 59 -45 54 -10 -3 -18 -1 -18 4 0 5 -7 9 -15 9 -18 0
-136 39 -150 50 -5 4 -30 11 -55 15 -25 4 -51 12 -58 18 -7 5 -15 8 -17 5 -3
-3 -42 8 -88 24 -45 16 -92 30 -105 31 -13 1 -29 9 -35 18 -16 21 -57 42 -65
34 -4 -3 -7 -88 -8 -188 -2 -152 -8 -221 -38 -422 -101 -666 -132 -1010 -171
-1855 -9 -195 -15 -446 -14 -558 1 -111 0 -205 -3 -208 -4 -3 -23 -1 -44 5
-22 5 -95 15 -164 21 -69 5 -161 15 -205 20 -83 11 -437 55 -560 70 -103 13
-199 27 -400 59 -99 16 -189 29 -200 29 -11 0 -74 10 -140 22 -66 12 -158 28
-205 35 -182 29 -415 78 -464 99 -55 23 -67 52 -73 169 l-6 103 -56 -3 c-31
-2 -72 -6 -91 -8 -40 -6 -216 -20 -430 -36 -80 -5 -199 -14 -265 -19 -210 -17
-427 -31 -525 -35 -52 -2 -122 -7 -155 -11 -33 -3 -109 -8 -170 -10 -60 -1
-146 -7 -190 -13 -44 -6 -132 -13 -195 -16 -252 -13 -643 -38 -785 -50 -27 -3
-111 -7 -185 -10 -74 -3 -164 -10 -200 -15 -36 -5 -141 -12 -235 -15 -93 -4
-183 -9 -200 -12 -16 -3 -59 -5 -95 -4 -36 0 -135 -6 -220 -14 -85 -7 -222
-16 -305 -19 -82 -3 -161 -8 -175 -11 -14 -3 -110 -10 -215 -15 -104 -5 -219
-14 -255 -19 -36 -6 -155 -13 -264 -16 -109 -3 -204 -9 -210 -13 -6 -5 -81
-10 -166 -11 -85 -2 -195 -7 -245 -12 -49 -5 -189 -14 -310 -20 -291 -13 -317
-14 -335 -22 -8 -3 -123 -8 -255 -11 -132 -3 -256 -10 -275 -16 -19 -6 -138
-13 -265 -16 -319 -7 -320 -7 -318 -21 2 -9 -34 -11 -140 -9 -115 2 -320 -5
-506 -16 -14 -1 -32 -6 -38 -11 -7 -5 -106 -9 -220 -9 -223 1 -393 -11 -404
-29 -4 -7 -17 -9 -32 -5 l-25 6 -1 -195 -1 -195 161 0 c97 0 168 4 181 11 14
8 18 8 14 0 -8 -13 4671 -14 4784 0 41 5 91 10 110 13 19 2 34 9 32 15 -3 14
11 14 25 0 10 -10 97 -3 308 25 17 2 66 7 110 11 44 5 87 9 95 10 8 1 49 6 90
10 41 5 77 9 80 10 3 1 43 5 90 9 47 4 119 11 160 17 41 5 129 13 195 19 66 6
128 13 139 16 14 5 16 3 10 -7 -6 -11 -5 -12 7 -3 8 7 38 15 68 19 44 6 52 5
45 -6 -6 -11 -5 -12 7 -2 9 7 49 17 90 22 107 14 324 39 394 46 148 14 626 66
790 85 44 5 148 17 230 25 202 20 204 21 410 44 99 12 227 26 285 31 58 6 112
12 120 15 30 8 323 35 328 30 3 -3 -2 -5 -11 -5 -9 0 -17 -4 -17 -8 0 -5 -13
-8 -30 -7 -16 1 -27 -1 -25 -5 4 -6 -32 -12 -155 -25 -14 -2 -99 -12 -190 -24
-91 -11 -194 -23 -230 -27 -36 -3 -67 -7 -70 -9 -3 -2 -43 -6 -90 -9 -47 -4
-96 -9 -110 -11 -14 -3 -104 -14 -200 -25 -96 -11 -215 -24 -265 -30 -49 -6
-110 -13 -135 -15 -191 -19 -344 -36 -395 -45 -33 -5 -96 -12 -140 -16 -117
-10 -131 -11 -235 -25 -52 -6 -111 -13 -130 -14 -19 -2 -78 -8 -130 -14 -111
-12 -169 -18 -302 -31 -53 -5 -143 -17 -199 -26 -56 -9 -115 -13 -130 -10 -16
3 -31 1 -35 -5 -4 -7 -24 -9 -50 -6 -24 2 -44 1 -44 -3 0 -3 -57 -12 -127 -19
-71 -6 -141 -14 -158 -17 -16 -2 -50 -7 -75 -10 -180 -21 -178 -22 35 -19 237
5 277 7 400 24 100 13 380 47 500 60 53 5 91 6 93 0 2 -4 13 -2 25 5 12 7 74
19 137 25 151 15 266 28 425 47 159 18 295 34 355 40 25 2 70 8 100 14 30 5
87 12 125 15 102 9 674 75 1045 121 69 9 136 17 150 18 14 2 48 6 75 9 96 13
231 22 305 21 48 -1 66 2 50 6 -20 7 -21 8 -5 9 11 0 27 -3 34 -8 21 -13 -30
-25 -70 -17 -21 4 -28 2 -23 -5 4 -8 -6 -10 -34 -7 -22 2 -39 1 -37 -2 2 -4
-98 -19 -223 -34 -125 -15 -267 -34 -317 -41 -49 -8 -126 -17 -170 -20 -44 -3
-89 -7 -100 -9 -11 -2 -81 -11 -155 -20 -74 -9 -187 -23 -250 -31 -63 -8 -137
-17 -165 -20 -27 -3 -63 -7 -80 -9 -101 -14 -258 -28 -275 -23 -11 3 -18 2
-15 -3 2 -4 -17 -10 -43 -13 -26 -3 -103 -13 -172 -22 -69 -8 -193 -22 -275
-30 -83 -7 -180 -19 -215 -24 -57 -10 -222 -29 -390 -46 -63 -6 -108 -13 -165
-24 -22 -5 1994 -9 4480 -10 3966 -1 4526 1 4569 14 27 8 54 21 60 28 6 8 57
29 113 47 56 18 104 38 107 45 2 7 20 16 38 20 58 11 148 47 148 59 0 7 28 21
63 31 l62 20 3 678 c1 372 0 677 -2 677 -2 0 -80 11 -173 24 -92 14 -233 32
-313 41 -152 17 -210 32 -80 21 96 -9 529 -65 553 -72 14 -4 17 1 17 29 l0 35
-87 10 -88 11 88 -5 87 -4 0 1011 0 1011 -22 -6 c-97 -25 -172 -29 -320 -18
-84 7 -184 19 -223 28 -39 8 -86 12 -107 9 -52 -9 -322 -27 -392 -26 -33 0
-82 5 -110 10 -182 35 -471 43 -452 12 3 -4 -14 -6 -37 -6 -23 1 -67 3 -97 4
-36 1 -50 4 -41 10 19 12 -58 22 -216 27 -140 5 -218 10 -218 14 0 2 -38 5
-85 7 -119 5 -216 18 -280 38 -77 24 -108 26 -165 10z m45 -25 c0 -5 -7 -10
-16 -10 -8 0 -12 5 -9 10 3 6 10 10 16 10 5 0 9 -4 9 -10z m65 0 c17 -7 14 -9
-13 -9 -20 -1 -31 3 -27 9 7 12 13 12 40 0z m-235 -20 c0 -5 -9 -10 -21 -10
-11 0 -17 5 -14 10 3 6 13 10 21 10 8 0 14 -4 14 -10z m247 -16 c-3 -3 -12 -4
-19 -1 -8 3 -5 6 6 6 11 1 17 -2 13 -5z m150 0 c-3 -3 -12 -4 -19 -1 -8 3 -5
6 6 6 11 1 17 -2 13 -5z m-390 -10 c-3 -3 -12 -4 -19 -1 -8 3 -5 6 6 6 11 1
17 -2 13 -5z m653 -3 c0 -15 -31 -21 -84 -16 -27 2 -57 -1 -67 -8 -14 -9 -21
-9 -30 0 -8 8 4 13 47 18 33 3 68 7 79 9 41 7 55 6 55 -3z m388 -26 c5 -5
-113 -9 -150 -6 -10 1 -26 -3 -37 -8 -20 -11 -85 4 -76 18 5 9 255 5 263 -4z
m-1038 -5 c0 -5 -2 -10 -4 -10 -3 0 -8 5 -11 10 -3 6 -1 10 4 10 6 0 11 -4 11
-10z m450 2 c0 -12 -78 -37 -87 -29 -10 11 4 20 32 20 14 0 28 3 31 8 7 11 24
12 24 1z m938 -14 c-16 -10 -108 -11 -108 0 0 4 27 7 60 8 34 0 55 -3 48 -8z
m112 -8 c0 -5 -4 -10 -10 -10 -5 0 -10 5 -10 10 0 6 5 10 10 10 6 0 10 -4 10
-10z m60 0 c12 -8 9 -10 -13 -10 -16 0 -26 4 -22 10 8 12 16 12 35 0z m-1480
-16 c0 -11 -6 -14 -21 -9 -16 5 -19 4 -14 -6 6 -9 3 -11 -9 -6 -10 4 -25 7
-34 8 -9 0 -1 6 18 13 48 19 60 19 60 0z m290 -10 c0 -2 -19 -4 -42 -3 -31 0
-37 3 -24 8 18 7 66 3 66 -5z m1368 -1 c-10 -2 -26 -2 -35 0 -10 3 -2 5 17 5
19 0 27 -2 18 -5z m55 0 c-7 -2 -19 -2 -25 0 -7 3 -2 5 12 5 14 0 19 -2 13 -5z
m44 1 c-3 -3 -12 -4 -19 -1 -8 3 -5 6 6 6 11 1 17 -2 13 -5z m258 -4 c-28 -12
-45 -12 -45 0 0 6 15 10 33 9 27 0 29 -2 12 -9z m-1935 -9 c0 -5 30 -8 68 -6
l67 4 -40 -13 c-22 -8 -55 -11 -72 -8 -19 2 -39 -1 -48 -8 -9 -7 -19 -10 -22
-6 -4 4 -1 11 7 16 8 6 11 10 7 10 -5 0 -5 5 -2 10 8 13 35 13 35 1z m2174 1
c2 -4 -46 -8 -107 -8 -94 -1 -101 0 -47 6 100 10 148 11 154 2z m-2234 -6 c0
-3 -4 -8 -10 -11 -5 -3 -10 -1 -10 4 0 6 5 11 10 11 6 0 10 -2 10 -4z m2340
-6 c0 -5 -7 -10 -16 -10 -8 0 -12 5 -9 10 3 6 10 10 16 10 5 0 9 -4 9 -10z
m100 -10 c0 -5 -4 -10 -9 -10 -6 0 -13 5 -16 10 -3 6 1 10 9 10 9 0 16 -4 16
-10z m235 -20 c7 -12 -19 -12 -55 0 -22 7 -21 8 12 9 20 1 40 -3 43 -9z
m-4120 -208 c-3 -3 -11 0 -18 7 -9 10 -8 11 6 5 10 -3 15 -9 12 -12z m95 -17
c46 -18 28 -18 -35 -1 -30 9 -40 14 -25 14 14 0 41 -6 60 -13z m400 -125 c0
-5 -4 -10 -10 -10 -5 0 -10 5 -10 10 0 6 5 10 10 10 6 0 10 -4 10 -10z m-488
-127 c-2 -29 1 -42 12 -46 17 -7 22 -37 7 -37 -5 0 -22 4 -36 10 -25 9 -26 13
-19 57 8 57 12 65 27 60 7 -2 11 -20 9 -44z m88 -3 c0 -13 -37 -13 -45 0 -3 6
-3 15 0 20 7 12 45 -5 45 -20z m236 -28 c6 -4 14 -24 17 -44 6 -38 5 -38 -28
-38 -37 0 -115 27 -115 40 0 12 27 20 66 20 24 0 34 5 34 15 0 16 9 19 26 7z
m-169 -27 c3 -9 3 -18 0 -21 -7 -8 -47 15 -47 26 0 16 40 11 47 -5z m-132 -95
c9 -39 7 -45 -7 -45 -8 0 -13 15 -14 42 0 47 11 49 21 3z m161 -86 c-3 -8 -10
-14 -16 -14 -11 0 -5 79 8 110 8 18 16 -76 8 -96z m-156 -73 c0 -6 -4 -13 -10
-16 -5 -3 -10 1 -10 9 0 9 5 16 10 16 6 0 10 -4 10 -9z m-100 -105 c0 -3 -4
-8 -10 -11 -5 -3 -10 -1 -10 4 0 6 5 11 10 11 6 0 10 -2 10 -4z m248 -31 c2
-16 8 -35 13 -41 11 -14 1 -24 -17 -17 -16 6 -19 -13 -3 -22 5 -4 21 -4 35 -1
20 5 24 12 24 46 0 29 4 40 15 40 8 0 15 5 15 10 0 6 5 10 10 10 13 0 13 -66
0 -91 -6 -10 -17 -19 -25 -19 -16 0 -22 -16 -31 -92 -3 -32 -10 -55 -15 -52
-5 3 -9 13 -9 23 0 12 -10 20 -29 24 -34 7 -59 43 -42 60 8 8 19 3 41 -18 30
-29 48 -29 37 0 -4 8 -16 15 -27 15 -12 0 -18 5 -15 10 3 6 -4 14 -17 19 -13
6 -17 10 -10 10 16 1 16 21 -1 21 -7 0 -21 11 -31 25 -49 66 -45 62 -46 41 0
-18 -1 -18 -20 -1 -11 10 -20 21 -20 25 0 4 37 6 83 6 l82 -1 3 -30z m56 20
c-6 -16 -44 -21 -44 -7 0 14 12 22 31 22 12 0 16 -5 13 -15z m-201 -137 c15
-6 27 -17 27 -24 0 -8 8 -14 18 -15 10 0 12 -3 5 -6 -7 -2 -27 3 -45 11 -33
17 -53 12 -28 -7 9 -7 16 -32 18 -62 1 -31 8 -53 17 -58 20 -11 19 -28 -1 -20
-19 7 -64 -16 -64 -32 0 -7 7 -18 15 -25 11 -9 14 -23 9 -49 -11 -59 -24 -60
-24 -1 -1 36 -4 50 -9 40 -17 -29 -83 -235 -83 -257 -1 -34 -22 -28 -36 10
-20 54 -18 85 24 401 8 60 17 112 19 116 5 9 98 -6 138 -22z m37 -84 c0 -8 -4
-14 -10 -14 -5 0 -10 9 -10 21 0 11 5 17 10 14 6 -3 10 -13 10 -21z m130 -84
c0 -5 -4 -10 -10 -10 -5 0 -10 5 -10 10 0 6 5 10 10 10 6 0 10 -4 10 -10z
m-278 -332 c-8 -8 -9 -4 -5 13 4 13 8 18 11 10 2 -7 -1 -18 -6 -23z m3728 -88
c0 -5 -2 -10 -4 -10 -3 0 -8 5 -11 10 -3 6 -1 10 4 10 6 0 11 -4 11 -10z
m-3299 -501 c-31 -581 -61 -961 -78 -980 -8 -10 -39 -20 -71 -24 -31 -5 -64
-9 -72 -11 -8 -1 -44 -5 -80 -9 -36 -4 -70 -12 -77 -17 -6 -5 -45 -10 -87 -11
-42 -1 -76 -5 -76 -9 0 -5 -22 -8 -50 -8 -46 0 -50 2 -56 27 -15 57 23 1233
41 1282 4 9 18 12 48 9 62 -7 216 9 273 28 59 19 210 94 262 129 l37 25 3 -27
c2 -16 -6 -197 -17 -404z m-271 407 c0 -3 -4 -8 -10 -11 -5 -3 -10 -1 -10 4 0
6 5 11 10 11 6 0 10 -2 10 -4z m-99 -39 c-12 -12 -31 0 -31 19 0 12 3 12 20 2
11 -7 16 -16 11 -21z m-148 -8 c-3 -12 -9 -17 -15 -11 -10 10 0 44 12 37 5 -3
6 -14 3 -26z m1737 6 c11 -13 7 -15 -25 -15 -32 0 -36 2 -25 15 7 8 18 15 25
15 7 0 18 -7 25 -15z m2315 -45 c3 -5 -1 -10 -10 -10 -9 0 -13 5 -10 10 3 6 8
10 10 10 2 0 7 -4 10 -10z m-20 -31 c12 -18 -3 -22 -20 -5 -14 14 -14 16 -1
16 8 0 18 -5 21 -11z m-227 -36 c-10 -2 -26 -2 -35 0 -10 3 -2 5 17 5 19 0 27
-2 18 -5z m367 -32 l40 -9 -40 0 c-22 0 -62 3 -90 8 l-50 7 50 1 c28 1 68 -3
90 -7z m-3005 -170 c0 -5 -10 -11 -22 -14 -22 -6 -22 -6 -4 8 23 17 26 18 26
6z m83 -5 c24 -19 22 -23 -17 -24 -32 -1 -36 4 -27 36 2 7 28 0 44 -12z m1820
-272 c20 -8 21 -22 2 -47 -7 -11 -17 -37 -20 -58 -5 -30 -11 -39 -23 -37 -14
3 -16 15 -13 73 3 77 7 89 24 81 7 -4 20 -9 30 -12z m227 -63 c22 -42 -1 -203
-31 -209 -25 -5 -41 44 -34 107 13 109 39 150 65 102z m-190 -26 c0 -8 -4 -15
-9 -15 -13 0 -22 16 -14 24 11 11 23 6 23 -9z m0 -73 c-1 -15 -9 -42 -19 -61
l-18 -34 -7 27 c-4 16 -2 33 3 40 6 7 8 15 5 19 -9 9 16 48 27 42 5 -4 9 -18
9 -33z m-2051 -32 c-11 -30 -29 -41 -29 -18 0 10 28 48 36 48 2 0 -2 -13 -7
-30z m35 -45 c17 -13 18 -16 3 -38 -19 -30 -47 -160 -47 -224 0 -65 -8 -90
-31 -96 -25 -7 -35 28 -18 60 10 19 10 28 1 43 -20 33 -15 96 10 119 19 18 20
24 9 45 -8 14 -10 36 -6 55 6 27 9 29 26 21 18 -10 24 -3 20 23 -2 11 12 8 33
-8z m73 -57 c13 -12 23 -26 23 -32 0 -6 -9 0 -19 13 -21 27 -46 20 -38 -10 3
-11 -1 -33 -10 -49 -8 -17 -11 -39 -8 -51 8 -25 -13 -81 -29 -76 -29 9 -10
143 30 205 18 27 22 27 51 0z m1855 -20 c-7 -7 -12 -8 -12 -2 0 14 12 26 19
19 2 -3 -1 -11 -7 -17z m-1848 -70 c9 -13 12 -26 7 -31 -5 -5 -4 -25 1 -45 12
-44 12 -63 3 -119 -10 -55 -35 -57 -64 -7 -23 38 -23 56 -1 29 7 -8 15 -15 19
-15 4 0 7 47 6 105 0 58 3 105 7 105 4 0 14 -10 22 -22z m-26 -269 c19 -29 6
-37 -18 -11 -23 25 -25 32 -7 32 7 0 18 -9 25 -21z m-9548 -129 c-24 -15 -36
-11 -14 4 10 8 21 12 24 10 2 -3 -2 -9 -10 -14z m-1605 -40 c-3 -5 -16 -10
-28 -9 -20 1 -20 2 3 9 14 4 26 8 28 9 2 1 0 -3 -3 -9z m2130 0 c3 -6 -1 -7
-9 -4 -18 7 -21 14 -7 14 6 0 13 -4 16 -10z m8315 -10 c-8 -5 -33 -12 -55 -15
-22 -4 -68 -15 -102 -25 -65 -20 -362 -80 -394 -80 -24 0 -25 27 -1 34 36 10
186 35 257 42 42 5 245 43 275 53 29 9 41 4 20 -9z m-10547 3 c-7 -2 -19 -2
-25 0 -7 3 -2 5 12 5 14 0 19 -2 13 -5z m7914 1 c-3 -3 -12 -4 -19 -1 -8 3 -5
6 6 6 11 1 17 -2 13 -5z m153 -39 c0 -8 -4 -15 -9 -15 -5 0 -11 7 -15 15 -3 9
0 15 9 15 8 0 15 -7 15 -15z m-8390 -5 c-8 -5 -19 -10 -25 -10 -5 0 -3 5 5 10
8 5 20 10 25 10 6 0 3 -5 -5 -10z m1687 4 c-3 -3 -12 -4 -19 -1 -8 3 -5 6 6 6
11 1 17 -2 13 -5z m-1534 -21 c-7 -2 -19 -2 -25 0 -7 3 -2 5 12 5 14 0 19 -2
13 -5z m-1226 -9 c-3 -3 -12 -4 -19 -1 -8 3 -5 6 6 6 11 1 17 -2 13 -5z m1178
-4 c3 -5 1 -10 -4 -10 -6 0 -11 5 -11 10 0 6 2 10 4 10 3 0 8 -4 11 -10z m115
-4 c0 -2 -7 -7 -16 -10 -8 -3 -12 -2 -9 4 6 10 25 14 25 6z m1790 0 c0 -3 -4
-8 -10 -11 -5 -3 -10 -1 -10 4 0 6 5 11 10 11 6 0 10 -2 10 -4z m-620 -16 c0
-5 -2 -10 -4 -10 -3 0 -8 5 -11 10 -3 6 -1 10 4 10 6 0 11 -4 11 -10z m1270 0
c0 -5 -5 -10 -11 -10 -5 0 -7 5 -4 10 3 6 8 10 11 10 2 0 4 -4 4 -10z m-633
-56 c-3 -3 -12 -4 -19 -1 -8 3 -5 6 6 6 11 1 17 -2 13 -5z m-2347 -8 c0 -2 -7
-7 -16 -10 -8 -3 -12 -2 -9 4 6 10 25 14 25 6z m170 -26 c0 -5 -5 -10 -11 -10
-5 0 -7 5 -4 10 3 6 8 10 11 10 2 0 4 -4 4 -10z m284 1 c4 -5 -3 -7 -14 -4
-23 6 -26 13 -6 13 8 0 17 -4 20 -9z m1356 -1 c8 -5 11 -12 8 -16 -4 -3 -14 1
-23 10 -18 17 -9 21 15 6z m-2115 -10 c-3 -5 -12 -10 -18 -10 -7 0 -6 4 3 10
19 12 23 12 15 0z m4435 -10 c0 -5 -5 -10 -11 -10 -5 0 -7 5 -4 10 3 6 8 10
11 10 2 0 4 -4 4 -10z m-4335 -10 c-3 -5 -12 -7 -20 -3 -21 7 -19 13 6 13 11
0 18 -4 14 -10z m970 -8 c-3 -3 -11 0 -18 7 -9 10 -8 11 6 5 10 -3 15 -9 12
-12z m392 -7 c0 -8 -4 -12 -9 -9 -5 3 -6 10 -3 15 9 13 12 11 12 -6z m38 5
c-3 -5 -1 -10 6 -10 7 0 10 -2 7 -5 -3 -3 -13 -2 -22 1 -14 5 -15 9 -4 15 17
11 20 11 13 -1z m1905 0 c0 -5 -5 -10 -11 -10 -5 0 -7 5 -4 10 3 6 8 10 11 10
2 0 4 -4 4 -10z m-3910 -10 c-8 -5 -19 -10 -25 -10 -5 0 -3 5 5 10 8 5 20 10
25 10 6 0 3 -5 -5 -10z m797 -14 c0 -8 -6 -12 -15 -9 -11 5 -11 7 0 14 7 5 13
9 14 9 0 0 1 -6 1 -14z m2433 10 c0 -3 -4 -8 -10 -11 -5 -3 -10 -1 -10 4 0 6
5 11 10 11 6 0 10 -2 10 -4z m1820 -6 c0 -5 -5 -10 -11 -10 -5 0 -7 5 -4 10 3
6 8 10 11 10 2 0 4 -4 4 -10z m-4605 -10 c-3 -5 -11 -10 -16 -10 -6 0 -7 5 -4
10 3 6 11 10 16 10 6 0 7 -4 4 -10z m302 -6 c-3 -3 -12 -4 -19 -1 -8 3 -5 6 6
6 11 1 17 -2 13 -5z m1533 2 c0 -3 -4 -8 -10 -11 -5 -3 -10 -1 -10 4 0 6 5 11
10 11 6 0 10 -2 10 -4z m-2087 -20 c4 -10 1 -13 -8 -9 -8 3 -12 9 -9 14 7 12
11 11 17 -5z m1574 8 c-3 -3 -12 -4 -19 -1 -8 3 -5 6 6 6 11 1 17 -2 13 -5z
m-1347 -14 c0 -5 -5 -10 -11 -10 -5 0 -7 5 -4 10 3 6 8 10 11 10 2 0 4 -4 4
-10z m475 0 c3 -6 -1 -7 -9 -4 -18 7 -21 14 -7 14 6 0 13 -4 16 -10z m3340 0
c-3 -5 -12 -10 -18 -10 -7 0 -6 4 3 10 19 12 23 12 15 0z m-4220 -18 c-3 -3
-11 0 -18 7 -9 10 -8 11 6 5 10 -3 15 -9 12 -12z m1015 14 c0 -3 -4 -8 -10
-11 -5 -3 -10 -1 -10 4 0 6 5 11 10 11 6 0 10 -2 10 -4z m-385 -34 c-3 -3 -11
0 -18 7 -9 10 -8 11 6 5 10 -3 15 -9 12 -12z m275 4 c0 -2 -7 -7 -16 -10 -8
-3 -12 -2 -9 4 6 10 25 14 25 6z m217 -2 c-3 -3 -12 -4 -19 -1 -8 3 -5 6 6 6
11 1 17 -2 13 -5z m-742 -14 c-3 -5 -10 -10 -16 -10 -5 0 -9 5 -9 10 0 6 7 10
16 10 8 0 12 -4 9 -10z m655 0 c0 -5 -5 -10 -11 -10 -5 0 -7 5 -4 10 3 6 8 10
11 10 2 0 4 -4 4 -10z m130 -22 c0 -6 -6 -5 -15 2 -8 7 -15 14 -15 16 0 2 7 1
15 -2 8 -4 15 -11 15 -16z m1120 12 c-20 -13 -33 -13 -25 0 3 6 14 10 23 10
15 0 15 -2 2 -10z m-1425 -10 c3 -5 -1 -10 -9 -10 -9 0 -16 5 -16 10 0 6 4 10
9 10 6 0 13 -4 16 -10z m110 0 c-3 -5 -11 -10 -16 -10 -6 0 -7 5 -4 10 3 6 11
10 16 10 6 0 7 -4 4 -10z m2955 -4 c0 -3 -4 -8 -10 -11 -5 -3 -10 -1 -10 4 0
6 5 11 10 11 6 0 10 -2 10 -4z m-3460 -16 c0 -5 -5 -10 -11 -10 -5 0 -7 5 -4
10 3 6 8 10 11 10 2 0 4 -4 4 -10z m345 0 c3 -5 -1 -10 -9 -10 -9 0 -16 5 -16
10 0 6 4 10 9 10 6 0 13 -4 16 -10z m210 0 c-3 -5 -14 -10 -23 -9 -14 0 -13 2
3 9 27 11 27 11 20 0z m1632 4 c-3 -3 -12 -4 -19 -1 -8 3 -5 6 6 6 11 1 17 -2
13 -5z m-2057 -8 c0 -3 -4 -8 -10 -11 -5 -3 -10 -1 -10 4 0 6 5 11 10 11 6 0
10 -2 10 -4z m990 -16 c0 -5 -4 -10 -10 -10 -5 0 -10 5 -10 10 0 6 5 10 10 10
6 0 10 -4 10 -10z m-1465 -30 c-3 -5 -11 -10 -16 -10 -6 0 -7 5 -4 10 3 6 11
10 16 10 6 0 7 -4 4 -10z m345 -4 c0 -2 -7 -7 -16 -10 -8 -3 -12 -2 -9 4 6 10
25 14 25 6z m1970 -6 c-8 -5 -19 -10 -25 -10 -5 0 -3 5 5 10 8 5 20 10 25 10
6 0 3 -5 -5 -10z"/>
<path d="M11880 2721 c0 -6 5 -13 10 -16 6 -3 10 1 10 9 0 9 -4 16 -10 16 -5
0 -10 -4 -10 -9z"/>
<path d="M1520 3840 c0 -5 5 -10 10 -10 6 0 10 5 10 10 0 6 -4 10 -10 10 -5 0
-10 -4 -10 -10z"/>
<path d="M1627 3844 c-13 -13 -7 -24 14 -24 11 0 19 5 17 12 -5 14 -22 21 -31
12z"/>
<path d="M4140 3820 c-13 -8 -12 -10 3 -10 9 0 17 5 17 10 0 12 -1 12 -20 0z"/>
<path d="M1585 3810 c3 -5 11 -10 16 -10 6 0 7 5 4 10 -3 6 -11 10 -16 10 -6
0 -7 -4 -4 -10z"/>
<path d="M1725 3791 c-13 -5 -2 -9 40 -14 67 -6 147 4 127 16 -6 5 -28 3 -47
-4 -27 -10 -38 -10 -47 -1 -13 13 -43 15 -73 3z"/>
<path d="M11110 3696 c0 -2 7 -9 15 -16 9 -7 15 -8 15 -2 0 5 -7 12 -15 16 -8
3 -15 4 -15 2z"/>
<path d="M11160 3685 c12 -15 30 -12 30 6 0 5 -10 9 -21 9 -18 0 -19 -2 -9
-15z"/>
<path d="M11380 3680 c0 -5 7 -10 16 -10 8 0 12 5 9 10 -3 6 -10 10 -16 10 -5
0 -9 -4 -9 -10z"/>
<path d="M12190 3648 c0 -15 5 -30 10 -33 13 -8 13 25 0 45 -8 12 -10 9 -10
-12z"/>
<path d="M9087 3643 c-4 -3 -7 -11 -7 -17 0 -6 5 -5 12 2 6 6 9 14 7 17 -3 3
-9 2 -12 -2z"/>
<path d="M9600 3580 c-8 -5 -10 -10 -5 -10 6 0 17 5 25 10 8 5 11 10 5 10 -5
0 -17 -5 -25 -10z"/>
<path d="M13071 3204 c0 -11 3 -14 6 -6 3 7 2 16 -1 19 -3 4 -6 -2 -5 -13z"/>
<path d="M13081 3134 c0 -11 3 -14 6 -6 3 7 2 16 -1 19 -3 4 -6 -2 -5 -13z"/>
<path d="M14120 3021 c0 -5 7 -14 15 -21 13 -10 15 -9 15 9 0 12 -6 21 -15 21
-8 0 -15 -4 -15 -9z"/>
<path d="M13010 2966 c0 -8 5 -18 10 -21 6 -3 10 3 10 14 0 12 -4 21 -10 21
-5 0 -10 -6 -10 -14z"/>
<path d="M14410 2970 c0 -5 5 -10 11 -10 5 0 7 5 4 10 -3 6 -8 10 -11 10 -2 0
-4 -4 -4 -10z"/>
<path d="M15085 2950 c3 -5 8 -10 11 -10 2 0 4 5 4 10 0 6 -5 10 -11 10 -5 0
-7 -4 -4 -10z"/>
<path d="M14370 2925 c7 -8 17 -15 22 -15 6 0 5 7 -2 15 -7 8 -17 15 -22 15
-6 0 -5 -7 2 -15z"/>
<path d="M14909 2917 c5 -5 19 -7 32 -5 20 3 19 5 -9 9 -20 3 -29 2 -23 -4z"/>
<path d="M14330 2880 c0 -5 7 -10 15 -10 8 0 15 5 15 10 0 6 -7 10 -15 10 -8
0 -15 -4 -15 -10z"/>
<path d="M14110 2840 c0 -5 5 -10 10 -10 6 0 10 5 10 10 0 6 -4 10 -10 10 -5
0 -10 -4 -10 -10z"/>
<path d="M14505 2840 c-7 -11 12 -197 21 -211 3 -5 11 -9 18 -9 9 0 12 12 9
38 -2 20 -5 62 -7 92 -5 85 -22 121 -41 90z"/>
<path d="M14030 2831 c0 -6 5 -13 10 -16 6 -3 10 1 10 9 0 9 -4 16 -10 16 -5
0 -10 -4 -10 -9z"/>
<path d="M14677 2803 c6 -14 43 -18 43 -4 0 5 -11 11 -24 13 -17 4 -23 1 -19
-9z"/>
<path d="M12840 2800 c0 -5 5 -10 10 -10 6 0 10 5 10 10 0 6 -4 10 -10 10 -5
0 -10 -4 -10 -10z"/>
<path d="M14600 2790 c0 -5 5 -10 10 -10 6 0 10 5 10 10 0 6 -4 10 -10 10 -5
0 -10 -4 -10 -10z"/>
<path d="M13425 2742 c-4 -20 -3 -38 3 -44 15 -15 24 24 14 53 -9 23 -10 23
-17 -9z"/>
<path d="M12610 2750 c0 -5 5 -10 10 -10 6 0 10 5 10 10 0 6 -4 10 -10 10 -5
0 -10 -4 -10 -10z"/>
<path d="M13538 2729 c-9 -27 5 -80 24 -90 26 -14 45 3 23 21 -8 7 -15 28 -15
46 0 23 -5 34 -14 34 -8 0 -16 -5 -18 -11z"/>
<path d="M12910 2714 c0 -8 5 -12 10 -9 6 3 10 10 10 16 0 5 -4 9 -10 9 -5 0
-10 -7 -10 -16z"/>
<path d="M14230 2720 c0 -5 5 -10 10 -10 6 0 10 5 10 10 0 6 -4 10 -10 10 -5
0 -10 -4 -10 -10z"/>
<path d="M14020 2710 c0 -5 5 -10 11 -10 5 0 7 5 4 10 -3 6 -8 10 -11 10 -2 0
-4 -4 -4 -10z"/>
<path d="M15064 2663 c4 -21 7 -51 9 -67 1 -16 8 -31 16 -34 10 -3 12 3 6 29
-13 65 -26 109 -31 109 -4 0 -3 -17 0 -37z"/>
<path d="M12995 2681 c-3 -5 -1 -12 5 -16 5 -3 10 1 10 9 0 18 -6 21 -15 7z"/>
<path d="M13480 2681 c0 -6 5 -13 10 -16 6 -3 10 1 10 9 0 9 -4 16 -10 16 -5
0 -10 -4 -10 -9z"/>
<path d="M14582 2669 c2 -7 10 -15 17 -17 8 -3 12 1 9 9 -2 7 -10 15 -17 17
-8 3 -12 -1 -9 -9z"/>
<path d="M12795 2660 c-3 -5 3 -10 15 -10 12 0 18 5 15 10 -3 6 -10 10 -15 10
-5 0 -12 -4 -15 -10z"/>
<path d="M14815 2649 c-8 -12 21 -59 35 -59 6 0 10 10 10 23 0 25 -35 53 -45
36z"/>
<path d="M14015 2630 c3 -5 12 -10 20 -10 7 0 16 -7 19 -16 4 -9 9 -14 13 -10
9 8 -27 46 -44 46 -8 0 -11 -4 -8 -10z"/>
<path d="M12690 2591 c0 -12 5 -21 10 -21 6 0 10 6 10 14 0 8 -4 18 -10 21 -5
3 -10 -3 -10 -14z"/>
<path d="M14690 2551 c0 -5 5 -13 10 -16 6 -3 10 -2 10 4 0 5 -4 13 -10 16 -5
3 -10 2 -10 -4z"/>
<path d="M12700 2540 c0 -5 5 -10 10 -10 6 0 10 5 10 10 0 6 -4 10 -10 10 -5
0 -10 -4 -10 -10z"/>
<path d="M14630 2530 c0 -5 5 -10 10 -10 6 0 10 5 10 10 0 6 -4 10 -10 10 -5
0 -10 -4 -10 -10z"/>
<path d="M14837 2533 c-13 -12 -7 -50 8 -63 23 -19 39 1 30 39 -6 29 -23 40
-38 24z"/>
<path d="M14136 2521 c-4 -7 -5 -15 -2 -18 9 -9 19 4 14 18 -4 11 -6 11 -12 0z"/>
<path d="M14000 2508 c0 -19 18 -43 25 -36 9 9 -4 48 -16 48 -5 0 -9 -6 -9
-12z"/>
<path d="M14925 2510 c-3 -5 1 -10 9 -10 9 0 16 5 16 10 0 6 -4 10 -9 10 -6 0
-13 -4 -16 -10z"/>
<path d="M15079 2510 c-18 -10 -18 -52 0 -74 6 -7 8 -16 4 -19 -3 -4 -1 -13 6
-20 6 -8 9 -21 6 -29 -8 -19 11 -68 26 -68 8 0 10 16 7 50 -3 27 -1 53 4 58 5
5 4 20 -2 36 -5 15 -7 32 -4 37 6 10 -13 39 -25 39 -3 0 -13 -5 -22 -10z"/>
<path d="M14270 2503 c1 -18 17 -28 48 -29 19 -1 38 -9 46 -19 7 -10 18 -15
24 -11 19 12 14 25 -13 32 -13 3 -29 12 -36 20 -12 14 -69 20 -69 7z"/>
<path d="M14640 2470 c0 -5 5 -10 10 -10 6 0 10 5 10 10 0 6 -4 10 -10 10 -5
0 -10 -4 -10 -10z"/>
<path d="M14920 2460 c0 -5 5 -10 11 -10 5 0 7 5 4 10 -3 6 -8 10 -11 10 -2 0
-4 -4 -4 -10z"/>
<path d="M15180 2460 c0 -5 5 -10 10 -10 6 0 10 5 10 10 0 6 -4 10 -10 10 -5
0 -10 -4 -10 -10z"/>
<path d="M14126 2453 c-11 -11 -6 -23 9 -23 8 0 15 4 15 9 0 13 -16 22 -24 14z"/>
<path d="M14850 2434 c0 -8 5 -12 10 -9 6 3 10 10 10 16 0 5 -4 9 -10 9 -5 0
-10 -7 -10 -16z"/>
<path d="M9237 2371 c-20 -35 -22 -62 -4 -55 18 7 49 62 42 74 -10 16 -20 12
-38 -19z"/>
<path d="M14732 2375 c-11 -13 -7 -15 25 -15 36 1 37 2 19 15 -24 18 -28 18
-44 0z"/>
<path d="M14810 2369 c0 -9 63 -49 79 -49 6 0 11 7 11 15 0 8 7 15 15 15 8 0
15 5 15 10 0 6 -11 8 -25 4 -15 -4 -25 -2 -25 5 0 6 -16 10 -35 9 -19 -1 -35
-5 -35 -9z"/>
<path d="M12345 2349 c-10 -15 1 -23 20 -15 9 3 13 10 10 16 -8 13 -22 13 -30
-1z"/>
<path d="M15196 2331 c-3 -5 1 -12 10 -15 20 -8 29 -1 19 13 -8 13 -22 14 -29
2z"/>
<path d="M9192 2276 c-6 -13 -8 -27 -5 -30 7 -7 42 37 36 46 -8 14 -20 8 -31
-16z"/>
<path d="M12335 2290 c-3 -5 -2 -10 4 -10 5 0 13 5 16 10 3 6 2 10 -4 10 -5 0
-13 -4 -16 -10z"/>
<path d="M15170 2240 c0 -5 5 -10 10 -10 6 0 10 5 10 10 0 6 -4 10 -10 10 -5
0 -10 -4 -10 -10z"/>
<path d="M13270 2175 c0 -16 55 -55 78 -55 7 0 -2 16 -19 35 -34 37 -59 45
-59 20z"/>
<path d="M12614 2131 c16 -3 32 -15 36 -26 8 -23 -4 -64 -20 -66 -5 -1 -14 -2
-20 -3 -12 -1 -11 -10 8 -58 10 -26 24 -40 45 -47 40 -15 56 -13 35 2 -9 7
-20 25 -23 40 -4 15 -17 34 -28 42 l-21 15 22 0 c30 0 52 22 52 53 0 35 -30
57 -76 56 -36 -1 -36 -2 -10 -8z"/>
<path d="M12778 2123 c34 -3 42 -8 42 -24 0 -10 -6 -19 -14 -19 -8 0 -27 -11
-43 -24 -15 -13 -37 -26 -48 -29 -18 -4 -18 -5 3 -6 17 -1 22 -7 22 -26 0 -37
33 -65 78 -65 20 0 44 5 52 10 11 7 6 8 -17 4 -43 -8 -63 9 -63 53 0 50 16 73
50 73 27 0 30 3 30 30 l0 30 -67 -2 c-49 -1 -56 -3 -25 -5z"/>
<path d="M12930 2053 c0 -38 -3 -85 -6 -105 -6 -35 -5 -38 18 -38 22 0 26 6
32 38 3 20 6 65 6 100 l0 62 31 0 c45 0 69 -16 69 -48 0 -32 -16 -52 -41 -52
-17 0 -17 -3 -3 -37 19 -47 48 -73 82 -73 l26 0 -22 16 c-12 8 -22 24 -22 34
0 11 -9 25 -20 32 -27 17 -25 24 9 31 57 12 48 89 -11 101 -17 3 -57 6 -89 6
l-59 0 0 -67z"/>
<path d="M13128 2103 c6 -2 18 -2 25 0 6 3 1 5 -13 5 -14 0 -19 -2 -12 -5z"/>
<path d="M13503 2083 l37 -4 0 -69 c0 -60 -3 -69 -20 -75 -30 -9 -40 2 -40 43
0 41 7 56 30 65 8 3 1 6 -16 6 -42 1 -63 -17 -70 -60 -5 -29 -2 -41 15 -58 22
-22 65 -28 76 -11 10 17 24 2 18 -20 -4 -16 0 -20 21 -20 18 0 26 6 27 18 0 9
4 56 7 105 l7 87 -65 -2 c-41 -1 -51 -3 -27 -5z"/>
<path d="M13687 2073 c18 -2 50 -2 70 0 21 2 7 4 -32 4 -38 0 -55 -2 -38 -4z"/>
<path d="M15368 2050 c-3 -18 0 -30 7 -30 6 0 12 14 13 30 1 17 -2 30 -7 30
-5 0 -11 -13 -13 -30z"/>
<path d="M13865 2063 c24 -6 35 -21 35 -50 0 -33 -16 -36 -44 -8 -27 27 -46
31 -78 14 -14 -8 -23 -8 -31 0 -19 19 -22 12 -19 -39 4 -45 6 -50 28 -50 18 0
24 5 24 23 0 37 12 67 25 67 8 0 17 -10 20 -22 15 -51 55 -126 71 -132 8 -3
25 -6 37 -6 18 0 19 1 5 13 -9 6 -18 24 -22 38 -3 14 -16 31 -28 37 -22 10
-21 11 10 11 19 1 31 5 27 11 -3 6 -2 10 4 10 19 0 22 39 5 65 -13 20 -24 25
-53 24 -21 -1 -28 -3 -16 -6z"/>
<path d="M14003 2033 c-6 -100 -2 -167 9 -175 24 -15 33 -1 35 53 5 100 13
137 31 142 9 3 -3 5 -28 6 -42 1 -45 -1 -47 -26z"/>
<path d="M13679 2029 c-38 -14 -54 -58 -39 -103 11 -36 27 -47 63 -45 15 0 17
2 7 6 -8 3 -19 11 -23 17 -9 13 1 93 14 119 5 9 8 17 7 16 -2 0 -15 -5 -29
-10z"/>
<path d="M12215 1970 c-9 -14 36 -21 75 -11 30 8 32 9 10 11 -14 1 -37 4 -52
6 -15 1 -30 -1 -33 -6z"/>
<path d="M15380 1925 c0 -9 6 -12 15 -9 8 4 15 10 15 15 0 5 -7 9 -15 9 -8 0
-15 -7 -15 -15z"/>
<path d="M15400 1876 c0 -9 7 -12 20 -9 11 3 20 9 20 14 0 5 -9 9 -20 9 -11 0
-20 -6 -20 -14z"/>
<path d="M15425 1820 c-8 -13 8 -18 29 -10 19 6 19 7 -2 12 -12 4 -24 2 -27
-2z"/>
<path d="M15035 1789 c57 -11 107 -11 100 1 -3 6 -36 9 -73 9 -62 -1 -64 -2
-27 -10z"/>
<path d="M15268 1783 c7 -3 16 -2 19 1 4 3 -2 6 -13 5 -11 0 -14 -3 -6 -6z"/>
<path d="M13574 1535 c-6 -16 2 -35 16 -35 14 0 41 31 35 41 -9 14 -45 11 -51
-6z"/>
<path d="M12314 1522 c-7 -4 -13 -34 -15 -67 l-4 -60 30 -3 c17 -2 39 4 50 11
16 13 18 18 7 41 -7 16 -8 28 -2 31 16 10 12 42 -6 49 -21 8 -46 7 -60 -2z"/>
<path d="M9222 1388 c-12 -15 16 -170 34 -188 6 -6 39 -18 74 -26 67 -15 260
-35 273 -27 4 2 22 0 40 -6 33 -11 140 -25 307 -41 52 -5 127 -14 165 -19 98
-14 180 -14 193 2 6 6 17 41 26 77 9 36 21 75 26 87 15 37 -14 50 -145 62 -66
7 -156 16 -200 21 -44 6 -188 19 -320 30 -132 11 -260 25 -285 30 -67 14 -176
12 -188 -2z m638 -78 c0 -5 -2 -10 -4 -10 -3 0 -8 5 -11 10 -3 6 -1 10 4 10 6
0 11 -4 11 -10z m-45 -12 c-29 -15 -45 -39 -45 -65 0 -24 -14 -31 -25 -13 -4
6 -15 8 -26 5 -15 -5 -19 -1 -19 14 0 19 3 20 20 9 25 -16 41 0 16 17 -22 17
-13 35 13 28 11 -3 28 0 38 6 10 6 25 10 33 10 10 0 9 -3 -5 -11z m-68 -114
c-3 -3 -12 -4 -19 -1 -8 3 -5 6 6 6 11 1 17 -2 13 -5z"/>
<path d="M10894 1311 c-297 -14 -344 -18 -361 -33 -11 -10 -24 -18 -29 -18
-13 0 -49 -144 -41 -164 6 -14 20 -15 94 -11 500 29 541 34 603 83 44 35 111
166 83 161 -5 -1 -162 -9 -349 -18z m123 -80 c26 -54 -20 -74 -59 -26 -15 18
-15 21 0 38 20 23 43 18 59 -12z m141 1 c2 -14 -2 -22 -12 -22 -19 0 -29 17
-22 36 8 22 30 12 34 -14z m-376 1 c10 -9 18 -23 18 -31 0 -13 -3 -12 -19 2
-25 23 -39 2 -16 -24 18 -20 13 -40 -10 -40 -25 0 -45 40 -34 69 9 22 25 40
38 41 3 0 13 -7 23 -17z m-148 -18 c22 -33 13 -61 -22 -68 -34 -7 -46 1 -31
19 9 11 9 17 -1 29 -10 12 -10 18 0 30 18 22 35 18 54 -10z"/>
<path d="M15083 1253 c-16 -26 -17 -73 -3 -73 15 0 22 23 18 62 -3 32 -3 32
-15 11z"/>
<path d="M15195 1229 c-4 -6 -4 -13 -1 -16 8 -8 36 5 36 17 0 13 -27 13 -35
-1z"/>
<path d="M14237 1073 c-6 -52 2 -69 27 -60 12 5 16 20 16 57 0 42 -3 50 -19
50 -15 0 -20 -10 -24 -47z"/>
<path d="M13930 1031 c0 -16 -3 -43 -6 -61 -6 -28 -4 -32 12 -28 14 2 21 15
26 52 8 54 4 66 -18 66 -9 0 -14 -10 -14 -29z"/>
<path d="M12308 980 c-5 -30 3 -46 16 -33 9 10 7 63 -3 63 -5 0 -11 -14 -13
-30z"/>
<path d="M13548 989 c-14 -8 -18 -24 -18 -74 0 -36 3 -65 8 -65 4 0 18 7 30
16 20 14 23 23 20 72 -3 58 -11 68 -40 51z"/>
<path d="M9020 980 c0 -5 7 -10 16 -10 8 0 12 5 9 10 -3 6 -10 10 -16 10 -5 0
-9 -4 -9 -10z"/>
<path d="M9033 862 c-26 -4 -30 -17 -9 -25 8 -3 20 1 27 9 14 18 11 21 -18 16z"/>
<path d="M10726 755 c-22 -23 -21 -24 17 -18 44 7 69 -21 65 -74 -2 -28 -9
-41 -25 -48 -25 -11 -31 -35 -10 -35 27 0 67 55 69 94 2 63 -77 119 -116 81z"/>
<path d="M15990 142 c0 -5 -39 -26 -87 -46 -49 -21 -96 -45 -105 -53 -9 -8
-36 -21 -60 -28 -40 -13 -34 -14 110 -14 l152 -1 0 75 c0 41 -2 75 -5 75 -3 0
-5 -4 -5 -8z"/>
<path d="M6850 90 c-13 -8 -12 -10 3 -10 9 0 17 5 17 10 0 12 -1 12 -20 0z"/>
<path d="M6295 30 c-3 -5 1 -10 9 -10 9 0 16 5 16 10 0 6 -4 10 -9 10 -6 0
-13 -4 -16 -10z"/>
<path d="M6235 10 c3 -5 8 -10 11 -10 2 0 4 5 4 10 0 6 -5 10 -11 10 -5 0 -7
-4 -4 -10z"/>
<path d="M6178 3 c7 -3 16 -2 19 1 4 3 -2 6 -13 5 -11 0 -14 -3 -6 -6z"/>
</g>
</svg>
