<svg width="111" height="61" viewBox="0 0 111 61" fill="none" xmlns="http://www.w3.org/2000/svg">
<path d="M14.5407 1.1131H42.7655C43.5918 1.1131 44.2623 1.78267 44.2623 2.60985C44.2623 3.43704 43.5918 4.10661 42.7655 4.10661H14.5407C13.7144 4.10661 13.0439 3.43703 13.0439 2.60985C13.0439 1.78267 13.7144 1.1131 14.5407 1.1131Z" fill="#0C54A6" stroke="#0C54A6"/>
<path d="M36.4927 16.6505H1.99676C1.17047 16.6505 0.5 15.9809 0.5 15.1537C0.5 14.3266 1.17047 13.657 1.99676 13.657H36.4927C37.319 13.657 37.9895 14.3266 37.9895 15.1537C37.9895 15.9809 37.319 16.6505 36.4927 16.6505Z" fill="#0C54A6" stroke="#0C54A6"/>
<path d="M11.404 26.2019H42.765C43.5913 26.2019 44.2618 26.8715 44.2618 27.6987C44.2618 28.5258 43.5913 29.1954 42.765 29.1954H11.404C10.5777 29.1954 9.90723 28.5258 9.90723 27.6987C9.90723 26.8715 10.5777 26.2019 11.404 26.2019Z" fill="#0C54A6" stroke="#0C54A6"/>
<path d="M1.99676 38.7458H36.4927C37.319 38.7458 37.9895 39.4154 37.9895 40.2426C37.9895 41.0698 37.319 41.7394 36.4927 41.7394H1.99676C1.17047 41.7394 0.5 41.0698 0.5 40.2426C0.5 39.4154 1.17047 38.7458 1.99676 38.7458Z" fill="#0C54A6" stroke="#0C54A6"/>
<path d="M50.6768 30.155C50.6768 13.8035 63.9803 0.5 80.3318 0.5C96.6833 0.5 109.987 13.8035 109.987 30.155C109.987 46.5065 96.6833 59.81 80.3318 59.81C63.9803 59.81 50.6768 46.5065 50.6768 30.155ZM53.6703 30.155C53.6703 44.857 65.6297 56.8165 80.3318 56.8165C95.0338 56.8165 106.993 44.857 106.993 30.155C106.993 15.453 95.0338 3.49351 80.3318 3.49351C65.6297 3.49351 53.6703 15.453 53.6703 30.155Z" fill="#0C54A6" stroke="#0C54A6"/>
<path d="M79.8519 30.1487V30.6487H80.3519H97.2817C98.1076 30.6487 98.7785 31.3191 98.7785 32.1467C98.7785 32.9739 98.108 33.6435 97.2817 33.6435H78.632H78.5955L78.5593 33.6488C78.4571 33.6638 78.4053 33.6715 78.3552 33.6715C77.5289 33.6715 76.8584 33.0019 76.8584 32.1747V11.6547C76.8584 10.8275 77.5289 10.158 78.3552 10.158C79.1814 10.158 79.8519 10.8275 79.8519 11.6547V30.1487Z" fill="#0C54A6" stroke="#0C54A6"/>
</svg>
