<svg width="67" height="67" viewBox="0 0 67 67" fill="none" xmlns="http://www.w3.org/2000/svg">
<path d="M20.6035 17.8716V33.9389C20.6035 34.294 20.8914 34.5826 21.2473 34.5826C21.6023 34.5826 21.8902 34.294 21.8902 33.9389V17.8716C21.8902 17.5157 21.6023 17.2278 21.2473 17.2278C20.8914 17.2271 20.6035 17.5157 20.6035 17.8716Z" fill="#0C54A6" stroke="#0C54A6" stroke-width="1.2"/>
<path d="M24.8654 17.2271C24.5103 17.2271 24.2217 17.5158 24.2217 17.8708V33.9382C24.2217 34.2933 24.5103 34.5819 24.8654 34.5819C25.2213 34.5819 25.5099 34.2933 25.5099 33.9382V17.8716C25.5099 17.5158 25.2213 17.2271 24.8654 17.2271Z" fill="#0C54A6" stroke="#0C54A6" stroke-width="1.2"/>
<path d="M29.1273 33.9389V17.8716C29.1273 17.5157 28.8387 17.2278 28.4844 17.2278C28.1277 17.2278 27.8398 17.5165 27.8398 17.8716V33.9389C27.8398 34.294 28.1277 34.5826 28.4844 34.5826C28.8387 34.5826 29.1273 34.294 29.1273 33.9389Z" fill="#0C54A6" stroke="#0C54A6" stroke-width="1.2"/>
<path d="M43.2734 47.2312C42.7404 47.2312 42.307 47.6638 42.307 48.1976V62.7702C39.517 63.6109 36.5608 64.0696 33.5003 64.0696C31.9709 64.0696 30.4667 63.9533 28.9973 63.7358L27.8965 40.6957C30.8819 39.4352 32.9104 36.3739 32.9104 32.997V18.0796C32.9104 17.5457 32.4786 17.1132 31.944 17.1132C31.4102 17.1132 30.9784 17.545 30.9784 18.0796V32.9962C30.9784 35.7973 29.1824 38.3114 26.6098 39.1101L25.8965 39.3324L27.0495 63.3776L27.1452 65.3736C27.7866 65.5002 28.4366 65.6046 29.0914 65.6931C30.5339 65.89 32.0049 66 33.5003 66C36.5514 66 39.5043 65.5682 42.307 64.7774C42.9587 64.5947 43.604 64.3922 44.239 64.1684V62.1154V48.1968C44.2398 47.6638 43.8072 47.2312 43.2734 47.2312Z" fill="#0C54A6" stroke="#0C54A6" stroke-width="1.2"/>
<path d="M33.5008 1C15.5798 1 1 15.5798 1 33.5C1 46.8959 9.14952 58.4246 20.751 63.3918C21.3734 63.6583 22.0076 63.9027 22.649 64.1305L22.7463 62.1091L23.8345 39.3324L23.1203 39.1102C20.5486 38.3106 18.7534 35.7966 18.7534 32.9962V18.0796C18.7534 17.5458 18.32 17.1132 17.7862 17.1132C17.2524 17.1132 16.8198 17.545 16.8198 18.0796V32.9962C16.8198 36.3731 18.8475 39.4344 21.8352 40.6958L20.8499 61.3175C10.2915 56.4958 2.93279 45.8449 2.93279 33.5C2.93279 16.6442 16.6458 2.932 33.5008 2.932C50.3558 2.932 64.0688 16.645 64.0688 33.5C64.0688 44.9457 57.7429 54.9355 48.4064 60.1739V16.581C48.4064 16.0471 47.9746 15.6146 47.44 15.6146C37.4091 15.6146 36.2094 44.835 36.1042 48.1668C36.0963 48.4285 36.1944 48.6816 36.377 48.869C36.5581 49.0572 36.8088 49.1632 37.0706 49.1632H39.587C40.12 49.1632 40.5534 48.7314 40.5534 48.1968C40.5534 47.663 40.12 47.2304 39.587 47.2304H38.0726C38.5408 36.0014 41.1442 19.5015 46.4752 17.7063V61.1712V63.2914C47.1308 63.0051 47.7745 62.6943 48.4064 62.3669C58.8469 56.9537 66.0016 46.0505 66.0016 33.5C66.0016 15.5798 51.4226 1 33.5008 1Z" fill="#0C54A6" stroke="#0C54A6" stroke-width="1.2"/>
</svg>
