<svg width="65" height="100" viewBox="0 0 65 100" fill="none" xmlns="http://www.w3.org/2000/svg">
<path d="M32.4666 99.4998H32.4648C14.8475 99.5653 0.5 85.1553 0.5 67.5332C0.5 49.9114 14.8475 35.5 32.4666 35.5H32.4667H32.4667H32.4667H32.4667H32.4668H32.4668H32.4668H32.4669H32.4669H32.4669H32.467H32.467H32.4671H32.4671H32.4671H32.4672H32.4672H32.4672H32.4673H32.4673H32.4673H32.4674H32.4674H32.4675H32.4675H32.4675H32.4676H32.4676H32.4677H32.4677H32.4678H32.4678H32.4679H32.468H32.468H32.468H32.4681H32.4681H32.4681H32.4682H32.4682H32.4682H32.4683H32.4683H32.4683H32.4684H32.4684H32.4684H32.4685H32.4685H32.4685H32.4686H32.4686H32.4687H32.4687H32.4687H32.4688H32.4688H32.4688H32.4689H32.4689H32.469H32.469H32.4691H32.4691H32.4691H32.4692H32.4692H32.4693H32.4693H32.4694H32.4694H32.4695H32.4695H32.4696H32.4696H32.4697H32.4697H32.4698H32.4698H32.4699H32.4699H32.47H32.47H32.4701H32.4701H32.4702H32.4702H32.4703H32.4704H32.4704H32.4705H32.4705H32.4706H32.4706H32.4707H32.4708H32.4708H32.4709H32.471H32.471H32.4711H32.4711H32.4712H32.4713H32.4713H32.4714H32.4715H32.4715H32.4716H32.4717H32.4718H32.4718H32.4719H32.472H32.472H32.4721H32.4722H32.4723H32.4723H32.4724H32.4725H32.4726H32.4727H32.4727H32.4728H32.4729H32.473H32.4731H32.4731H32.4732H32.4733H32.4734H32.4735H32.4736H32.4736H32.4737H32.4738H32.4739H32.474H32.4741H32.4742H32.4743H32.4744H32.4745H32.4746H32.4746H32.4747H32.4748H32.4749H32.475H32.4751H32.4752H32.4753H32.4754H32.4755H32.4756H32.4757H32.4758H32.476H32.4761H32.4762H32.4763H32.4764H32.4765H32.4766H32.4767H32.4768H32.4769H32.477H32.4772H32.4773H32.4774H32.4775H32.4776H32.4777H32.4779H32.478H32.4781H32.4782H32.4783H32.4785H32.4786H32.4787H32.4788H32.479H32.4791H32.4792H32.4793H32.4795H32.4796H32.4797H32.4799H32.48H32.4801H32.4803H32.4804H32.4805H32.4807H32.4808H32.481H32.4811H32.4812H32.4814H32.4815H32.4817H32.4818H32.482H32.4821H32.4823H32.4824H32.4826H32.4827H32.4829H32.483H32.4832H32.4833H32.4835H32.4836H32.4838H32.484H32.4841H32.4843H32.4844H32.4846H32.4848H32.4849H32.4851H32.4853H32.4854H32.4856H32.4858H32.4859H32.4861H32.4863H32.4865H32.4866H32.4868H32.487H32.4872H32.4873H32.4875H32.4877H32.4879H32.4881H32.4882H32.4884H32.4886H32.4888H32.489H32.4892H32.4894H32.4896H32.4897H32.4899H32.4901H32.4903H32.4905H32.4907H32.4909H32.4911H32.4913H32.4915H32.4917H32.4919H32.4921H32.4923H32.4926H32.4928H32.493H32.4932H32.4934H32.4936H32.4938H32.494H32.4943H32.4945H32.4947H32.4949H32.4951H32.4953H32.4956H32.4958H32.496H32.4963H32.4965H32.4967H32.4969H32.4972H32.4974H32.4976H32.4979H32.4981H32.4983H32.4986H32.4988H32.4991H32.4993H32.4995H32.4998H32.5H32.5003H32.5005H32.5008H32.501H32.5013H32.5015H32.5018H32.502H32.5023H32.5026H32.5028H32.5031H32.5033H32.5036H32.5039H32.5041H32.5044H32.5047H32.5049H32.5052H32.5055H32.5058H32.506H32.5063H32.5066H32.5069H32.5071H32.5074H32.5077H32.508H32.5083H32.5086H32.5088H32.5091H32.5094H32.5097H32.51H32.5103H32.5106H32.5109H32.5112H32.5115H32.5118H32.5121H32.5124H32.5127H32.513H32.5133H32.5136H32.5139H32.5142H32.5146H32.5149H32.5152H32.5155H32.5158H32.5161H32.5165H32.5168H32.5171H32.5174H32.5178H32.5181H32.5184H32.5187H32.5191H32.5194H32.5197H32.5201H32.5204H32.5208H32.5211H32.5214H32.5218H32.5221H32.5225H32.5228H32.5232H32.5235H32.5239H32.5242H32.5246H32.5249H32.5253H32.5257H32.526H32.5264H32.5267H32.5271H32.5275H32.5278H32.5282H32.5286H32.529H32.5293H32.5297H32.5301H32.5305H32.5308H32.5312H32.5316H32.532H32.5324H32.5328H32.5331C36.1368 35.5 39.6721 36.0895 43.0091 37.267C43.5875 37.478 43.9847 37.941 44.0831 38.4825C44.1817 39.0246 43.9934 39.5855 43.5779 40.0134C43.0867 40.3856 42.5422 40.5087 42.0182 40.3182L42.0149 40.317C38.9664 39.2331 35.7828 38.6914 32.5331 38.6914H32.5331H32.5331H32.5331H32.533H32.533H32.533H32.5329H32.5329H32.5329H32.5328H32.5328H32.5327H32.5327H32.5327H32.5326H32.5326H32.5326H32.5325H32.5325H32.5325H32.5324H32.5324H32.5324H32.5323H32.5323H32.5322H32.5322H32.5321H32.5321H32.532H32.532H32.5319H32.5319H32.5318H32.5318H32.5317H32.5317H32.5317H32.5316H32.5316H32.5316H32.5315H32.5315H32.5315H32.5314H32.5314H32.5314H32.5313H32.5313H32.5313H32.5312H32.5312H32.5312H32.5311H32.5311H32.531H32.531H32.531H32.5309H32.5309H32.5308H32.5308H32.5308H32.5307H32.5307H32.5306H32.5306H32.5305H32.5305H32.5304H32.5304H32.5304H32.5303H32.5303H32.5302H32.5302H32.5301H32.5301H32.53H32.53H32.5299H32.5299H32.5298H32.5298H32.5297H32.5296H32.5296H32.5295H32.5295H32.5294H32.5294H32.5293H32.5292H32.5292H32.5291H32.5291H32.529H32.5289H32.5289H32.5288H32.5288H32.5287H32.5286H32.5286H32.5285H32.5284H32.5284H32.5283H32.5282H32.5282H32.5281H32.528H32.5279H32.5279H32.5278H32.5277H32.5277H32.5276H32.5275H32.5274H32.5274H32.5273H32.5272H32.5271H32.527H32.527H32.5269H32.5268H32.5267H32.5266H32.5266H32.5265H32.5264H32.5263H32.5262H32.5261H32.526H32.5259H32.5259H32.5258H32.5257H32.5256H32.5255H32.5254H32.5253H32.5252H32.5251H32.525H32.5249H32.5248H32.5247H32.5246H32.5245H32.5244H32.5243H32.5242H32.5241H32.524H32.5239H32.5238H32.5237H32.5236H32.5235H32.5234H32.5233H32.5232H32.5231H32.523H32.5228H32.5227H32.5226H32.5225H32.5224H32.5223H32.5222H32.522H32.5219H32.5218H32.5217H32.5216H32.5214H32.5213H32.5212H32.5211H32.5209H32.5208H32.5207H32.5206H32.5204H32.5203H32.5202H32.52H32.5199H32.5198H32.5196H32.5195H32.5194H32.5192H32.5191H32.5189H32.5188H32.5187H32.5185H32.5184H32.5182H32.5181H32.518H32.5178H32.5177H32.5175H32.5174H32.5172H32.5171H32.5169H32.5168H32.5166H32.5164H32.5163H32.5161H32.516H32.5158H32.5157H32.5155H32.5153H32.5152H32.515H32.5148H32.5147H32.5145H32.5143H32.5142H32.514H32.5138H32.5137H32.5135H32.5133H32.5131H32.513H32.5128H32.5126H32.5124H32.5123H32.5121H32.5119H32.5117H32.5115H32.5113H32.5112H32.511H32.5108H32.5106H32.5104H32.5102H32.51H32.5098H32.5096H32.5094H32.5092H32.509H32.5088H32.5086H32.5084H32.5082H32.508H32.5078H32.5076H32.5074H32.5072H32.507H32.5068H32.5066H32.5064H32.5062H32.506H32.5057H32.5055H32.5053H32.5051H32.5049H32.5046H32.5044H32.5042H32.504H32.5037H32.5035H32.5033H32.5031H32.5028H32.5026H32.5024H32.5021H32.5019H32.5017H32.5014H32.5012H32.5009H32.5007H32.5005H32.5002H32.5H32.4997H32.4995H32.4992H32.499H32.4987H32.4985H32.4982H32.498H32.4977H32.4975H32.4972H32.4969H32.4967H32.4964H32.4962H32.4959H32.4956H32.4954H32.4951H32.4948H32.4946H32.4943H32.494H32.4937H32.4935H32.4932H32.4929H32.4926H32.4923H32.4921H32.4918H32.4915H32.4912H32.4909H32.4906H32.4903H32.4901H32.4898H32.4895H32.4892H32.4889H32.4886H32.4883H32.488H32.4877H32.4874H32.4871H32.4868H32.4865H32.4861H32.4858H32.4855H32.4852H32.4849H32.4846H32.4843H32.484H32.4836H32.4833H32.483H32.4827H32.4823H32.482H32.4817H32.4814H32.481H32.4807H32.4804H32.48H32.4797H32.4794H32.479H32.4787H32.4783H32.478H32.4776H32.4773H32.477H32.4766H32.4762H32.4759H32.4755H32.4752H32.4748H32.4745H32.4741H32.4738H32.4734H32.473H32.4727H32.4723H32.4719H32.4716H32.4712H32.4708H32.4704H32.4701H32.4697H32.4693H32.4689H32.4686H32.4682H32.4678H32.4674H32.467H32.4666C16.6217 38.6914 3.69139 51.6232 3.69139 67.5332C3.69139 83.4438 16.6225 96.3749 32.5331 96.3749C48.4454 96.3749 61.3084 83.4423 61.3084 67.5332C61.3084 63.6753 60.5636 59.9498 59.0734 56.4274L59.0734 56.4274L59.071 56.4218C58.7263 55.634 59.1085 54.7183 59.9443 54.3526C60.7309 54.0084 61.6451 54.3889 62.0119 55.2221C63.6494 59.1536 64.4998 63.2783 64.4998 67.5332C64.4998 85.1529 50.1542 99.4998 32.4666 99.4998ZM33.7972 59.9165H34.5588L34.256 59.2177C33.3155 57.0473 31.1447 55.5235 28.6744 55.5235H23.6181C22.7633 55.5235 22.0557 54.8159 22.0557 53.961C22.0557 53.1062 22.7633 52.3986 23.6181 52.3986H41.3816C42.2365 52.3986 42.9441 53.1062 42.9441 53.961C42.9441 54.791 42.2571 55.5368 41.286 55.6565H36.658H35.7237L36.242 56.4339C36.8756 57.3844 37.3818 58.5252 37.6336 59.658L37.7206 60.0496H38.1217H41.3151C42.17 60.0496 42.8775 60.7571 42.8775 61.612C42.8775 62.4669 42.17 63.1744 41.3151 63.1744H38.1217H37.7179L37.6329 63.5691C36.7502 67.6672 33.0901 70.6959 28.8665 70.7589L27.611 70.7776L28.5358 71.6271L37.5091 79.8692C37.9363 80.3005 38.1143 80.8509 37.9719 81.3729C37.8122 81.9585 37.3969 82.4056 36.8591 82.5523L36.8457 82.5559L36.8325 82.5603C36.7218 82.5972 36.6028 82.6012 36.3919 82.6012C35.9833 82.6012 35.5811 82.4481 35.2818 82.1488L35.2819 82.1487L35.2721 82.1394L22.6314 70.164L22.6162 70.1496L22.5999 70.1366C22.1249 69.7566 21.9617 69.0697 22.2168 68.4573C22.479 67.8282 23.0395 67.4344 23.6847 67.4344H28.7409C31.1481 67.4344 33.3169 65.9073 34.256 63.7402L34.5588 63.0414H33.7972H23.6181C22.7633 63.0414 22.0557 62.3338 22.0557 61.4789C22.0557 60.6241 22.7633 59.9165 23.6181 59.9165H33.7972ZM50.9494 51.8696L50.9493 51.8695L50.941 51.8777C50.6418 52.177 50.2395 52.33 49.8309 52.33C49.4224 52.33 49.0201 52.177 48.7208 51.8777L42.8662 46.0231C42.2631 45.42 42.2631 44.406 42.8662 43.8029C43.5462 43.1229 44.56 43.1434 45.1529 43.7363L49.5439 48.1273L49.888 48.4714L50.2413 48.1368L59.0232 39.8206L59.0233 39.8207L59.033 39.8111C59.6335 39.2105 60.6364 39.21 61.2393 39.8632L61.2461 39.8705L61.2532 39.8776C61.8537 40.4781 61.8542 41.4811 61.2011 42.084L61.201 42.0839L61.195 42.0897L50.9494 51.8696Z" fill="#0C54A6" stroke="#0C54A6"/>
</svg>
