<svg width="111" height="98" viewBox="0 0 111 98" fill="none" xmlns="http://www.w3.org/2000/svg">
<g clip-path="url(#clip0_701_282)">
<path d="M14.5407 38.1133H42.7655C43.5918 38.1133 44.2623 38.7829 44.2623 39.61C44.2623 40.4372 43.5918 41.1068 42.7655 41.1068H14.5407C13.7144 41.1068 13.0439 40.4372 13.0439 39.61C13.0439 38.7829 13.7144 38.1133 14.5407 38.1133Z" fill="#0C54A6" stroke="#0C54A6"/>
<path d="M36.4927 53.6507H1.99676C1.17047 53.6507 0.5 52.9812 0.5 52.154C0.5 51.3268 1.17047 50.6572 1.99676 50.6572H36.4927C37.319 50.6572 37.9895 51.3268 37.9895 52.154C37.9895 52.9812 37.319 53.6507 36.4927 53.6507Z" fill="#0C54A6" stroke="#0C54A6"/>
<path d="M11.404 63.2021H42.765C43.5913 63.2021 44.2618 63.8717 44.2618 64.6989C44.2618 65.5261 43.5913 66.1957 42.765 66.1957H11.404C10.5777 66.1957 9.90723 65.5261 9.90723 64.6989C9.90723 63.8717 10.5777 63.2021 11.404 63.2021Z" fill="#0C54A6" stroke="#0C54A6"/>
<path d="M1.99676 75.7461H36.4927C37.319 75.7461 37.9895 76.4157 37.9895 77.2428C37.9895 78.07 37.319 78.7396 36.4927 78.7396H1.99676C1.17047 78.7396 0.5 78.07 0.5 77.2428C0.5 76.4157 1.17047 75.7461 1.99676 75.7461Z" fill="#0C54A6" stroke="#0C54A6"/>
<path d="M50.6768 67.155C50.6768 50.8035 63.9803 37.5 80.3318 37.5C96.6833 37.5 109.987 50.8035 109.987 67.155C109.987 83.5065 96.6833 96.81 80.3318 96.81C63.9803 96.81 50.6768 83.5065 50.6768 67.155ZM53.6703 67.155C53.6703 81.857 65.6297 93.8165 80.3318 93.8165C95.0338 93.8165 106.993 81.857 106.993 67.155C106.993 52.453 95.0338 40.4935 80.3318 40.4935C65.6297 40.4935 53.6703 52.453 53.6703 67.155Z" fill="#0C54A6" stroke="#0C54A6"/>
<path d="M79.8519 67.1489V67.6489H80.3519H97.2817C98.1076 67.6489 98.7785 68.3194 98.7785 69.147C98.7785 69.9742 98.108 70.6437 97.2817 70.6437H78.632H78.5955L78.5593 70.6491C78.4571 70.6641 78.4053 70.6717 78.3552 70.6717C77.5289 70.6717 76.8584 70.0021 76.8584 69.1749V48.655C76.8584 47.8278 77.5289 47.1582 78.3552 47.1582C79.1814 47.1582 79.8519 47.8278 79.8519 48.655V67.1489Z" fill="#0C54A6" stroke="#0C54A6"/>
</g>
<defs>
<clipPath id="clip0_701_282">
<rect width="110.487" height="97.31" fill="white"/>
</clipPath>
</defs>
</svg>
