<svg width="62" height="100" viewBox="0 0 62 100" fill="none" xmlns="http://www.w3.org/2000/svg">
<g clip-path="url(#clip0_701_286)">
<path d="M54.3531 67.4848L61.717 58.4209C61.941 58.1452 62.0101 57.7753 61.9006 57.4376C61.791 57.0998 61.5174 56.8409 61.1741 56.7495L49.8881 53.7444L50.5183 42.083C50.5371 41.7285 50.3752 41.388 50.0884 41.18C49.8002 40.9713 49.4282 40.9218 49.096 41.0502L38.2002 45.2521L31.8552 35.447C31.4678 34.851 30.4838 34.851 30.0965 35.447L23.7515 45.2521L12.8556 41.0495C12.5234 40.9211 12.1494 40.9706 11.8633 41.1793C11.5764 41.388 11.4138 41.7278 11.4334 42.0823L12.0635 53.7438L0.778283 56.7488C0.434931 56.8402 0.161366 57.0991 0.0518 57.4369C-0.0577657 57.7747 0.0106254 58.1452 0.234642 58.4209L7.59927 67.4848L0.234642 76.5495C0.0106254 76.8251 -0.0584638 77.195 0.0511019 77.5328C0.160668 77.8705 0.434233 78.1294 0.777585 78.2209L12.0635 81.2252L11.4334 92.8866C11.4145 93.2411 11.5764 93.5817 11.8633 93.7896C12.1508 93.9983 12.5234 94.0479 12.8556 93.9195L23.7515 89.7169L30.0965 99.522C30.2898 99.8199 30.6206 100 30.9758 100C31.3311 100 31.6611 99.8199 31.8552 99.522L38.2002 89.7169L49.096 93.9195C49.4282 94.0479 49.8016 93.9983 50.0884 93.7896C50.3752 93.581 50.5378 93.2411 50.5183 92.8866L49.8881 81.2252L61.1741 78.2209C61.5174 78.1294 61.791 77.8705 61.9006 77.5328C62.0101 77.195 61.9417 76.8251 61.717 76.5495L54.3531 67.4848ZM48.5273 79.4212C48.0478 79.5489 47.7247 79.9948 47.7512 80.4896L48.3402 91.3855L38.1597 87.4593C37.6984 87.2813 37.1736 87.4509 36.9035 87.8668L30.9758 97.0271L25.0481 87.8661C24.8506 87.5605 24.5156 87.3881 24.1688 87.3881C24.0425 87.3881 23.9155 87.4104 23.792 87.4586L13.6114 91.3848L14.2004 80.4889C14.2269 79.9941 13.9031 79.5482 13.4244 79.4205L2.87957 76.6144L9.76057 68.145C10.0732 67.7605 10.0732 67.2092 9.76057 66.8246L2.87957 58.356L13.4237 55.5491C13.9031 55.4214 14.2262 54.9755 14.1997 54.4807L13.6107 43.5849L23.7913 47.5111C24.2546 47.6911 24.778 47.5194 25.0474 47.1035L30.9758 37.9426L36.9035 47.1035C37.1736 47.5201 37.6984 47.6918 38.1597 47.5111L48.3402 43.5849L47.7512 54.4807C47.7247 54.9755 48.0485 55.4214 48.5273 55.5491L59.0714 58.356L52.1918 66.8246C51.8791 67.2092 51.8791 67.7598 52.1918 68.145L59.0721 76.6144L48.5273 79.4212ZM42.4432 57.3022L18.2285 76.0107C17.7714 76.3638 17.687 77.0219 18.0401 77.479C18.246 77.7463 18.5558 77.8859 18.8692 77.8859C19.0925 77.8859 19.3186 77.8147 19.5084 77.6674L43.7224 58.9589C44.1795 58.6058 44.264 57.9477 43.9109 57.4906C43.5577 57.0328 42.8997 56.9484 42.4432 57.3022ZM25.8395 62.823C27.2841 62.823 28.6429 62.2599 29.6638 61.2382C31.7721 59.1292 31.7721 55.6978 29.6638 53.5895C28.6422 52.5678 27.2841 52.0054 25.8402 52.0054C24.3956 52.0054 23.0369 52.5678 22.0159 53.5895C19.9076 55.6978 19.9076 59.1292 22.0159 61.2382C23.0369 62.2599 24.3942 62.823 25.8395 62.823ZM23.4954 55.0697C24.1214 54.4437 24.9539 54.099 25.8395 54.099C26.7251 54.099 27.557 54.4437 28.183 55.0697C29.4754 56.3622 29.4754 58.4648 28.183 59.758C27.557 60.384 26.7237 60.7294 25.8388 60.7294C24.9539 60.7294 24.1214 60.3847 23.4954 59.758C22.2036 58.4655 22.2036 56.3629 23.4954 55.0697ZM36.1122 72.1466C34.6676 72.1466 33.3088 72.7098 32.2878 73.7315C30.1796 75.8404 30.1796 79.2719 32.2878 81.3801C33.3095 82.4018 34.6676 82.9643 36.1122 82.9643C37.5568 82.9643 38.9155 82.4018 39.9358 81.3801C42.0441 79.2712 42.0441 75.8404 39.9358 73.7315C38.9148 72.7098 37.5575 72.1466 36.1122 72.1466ZM38.4563 79.8999C37.8303 80.5259 36.9978 80.8707 36.1129 80.8707C35.2266 80.8707 34.3947 80.5259 33.7687 79.8999C32.4763 78.6075 32.4763 76.5048 33.7687 75.2116C34.3947 74.5856 35.228 74.2402 36.1129 74.2402C36.9978 74.2402 37.8303 74.5849 38.4563 75.2116C39.7481 76.5041 39.7481 78.6075 38.4563 79.8999Z" fill="#0C54A6" stroke="#0C54A6" stroke-width="1.5"/>
</g>
<defs>
<clipPath id="clip0_701_286">
<rect width="61.9518" height="100" fill="white"/>
</clipPath>
</defs>
</svg>
