<svg width="65" height="100" viewBox="0 0 65 100" fill="none" xmlns="http://www.w3.org/2000/svg">
<g clip-path="url(#clip0_701_288)">
<path d="M19.6035 51.8713V67.9386C19.6035 68.2937 19.8914 68.5823 20.2473 68.5823C20.6023 68.5823 20.8902 68.2937 20.8902 67.9386V51.8713C20.8902 51.5154 20.6023 51.2275 20.2473 51.2275C19.8914 51.2267 19.6035 51.5154 19.6035 51.8713Z" fill="#0C54A6" stroke="#0C54A6" stroke-width="1.2"/>
<path d="M23.8654 51.2275C23.5103 51.2275 23.2217 51.5162 23.2217 51.8713V67.9386C23.2217 68.2937 23.5103 68.5823 23.8654 68.5823C24.2213 68.5823 24.5099 68.2937 24.5099 67.9386V51.8721C24.5099 51.5162 24.2213 51.2275 23.8654 51.2275Z" fill="#0C54A6" stroke="#0C54A6" stroke-width="1.2"/>
<path d="M28.1273 67.9386V51.8713C28.1273 51.5154 27.8387 51.2275 27.4844 51.2275C27.1277 51.2275 26.8398 51.5162 26.8398 51.8713V67.9386C26.8398 68.2937 27.1277 68.5823 27.4844 68.5823C27.8387 68.5823 28.1273 68.2937 28.1273 67.9386Z" fill="#0C54A6" stroke="#0C54A6" stroke-width="1.2"/>
<path d="M42.2734 81.2313C41.7404 81.2313 41.307 81.6639 41.307 82.1977V96.7703C38.517 97.611 35.5608 98.0697 32.5003 98.0697C30.9709 98.0697 29.4667 97.9534 27.9973 97.7359L26.8965 74.6959C29.8819 73.4353 31.9104 70.374 31.9104 66.9971V52.0797C31.9104 51.5459 31.4786 51.1133 30.944 51.1133C30.4102 51.1133 29.9784 51.5451 29.9784 52.0797V66.9963C29.9784 69.7975 28.1824 72.3115 25.6098 73.1103L24.8965 73.3325L26.0495 97.3777L26.1452 99.3738C26.7866 99.5003 27.4366 99.6047 28.0914 99.6933C29.5339 99.8902 31.0049 100 32.5003 100C35.5514 100 38.5043 99.5683 41.307 98.7775C41.9587 98.5948 42.604 98.3923 43.239 98.1685V96.1155V82.1969C43.2398 81.6639 42.8072 81.2313 42.2734 81.2313Z" fill="#0C54A6" stroke="#0C54A6" stroke-width="1.2"/>
<path d="M32.5008 35C14.5798 35 0 49.5798 0 67.5C0 80.8959 8.14952 92.4246 19.751 97.3918C20.3734 97.6583 21.0076 97.9027 21.649 98.1305L21.7463 96.1091L22.8345 73.3324L22.1203 73.1102C19.5486 72.3106 17.7534 69.7966 17.7534 66.9962V52.0796C17.7534 51.5458 17.32 51.1132 16.7862 51.1132C16.2524 51.1132 15.8198 51.545 15.8198 52.0796V66.9962C15.8198 70.3731 17.8475 73.4344 20.8352 74.6958L19.8499 95.3175C9.29148 90.4958 1.93279 79.8449 1.93279 67.5C1.93279 50.6442 15.6458 36.932 32.5008 36.932C49.3558 36.932 63.0688 50.645 63.0688 67.5C63.0688 78.9457 56.7429 88.9355 47.4064 94.1739V50.581C47.4064 50.0471 46.9746 49.6146 46.44 49.6146C36.4091 49.6146 35.2094 78.835 35.1042 82.1668C35.0963 82.4285 35.1944 82.6816 35.377 82.869C35.5581 83.0572 35.8088 83.1632 36.0706 83.1632H38.587C39.12 83.1632 39.5534 82.7314 39.5534 82.1968C39.5534 81.663 39.12 81.2304 38.587 81.2304H37.0726C37.5408 70.0014 40.1442 53.5015 45.4752 51.7063V95.1712V97.2914C46.1308 97.0051 46.7745 96.6943 47.4064 96.3669C57.8469 90.9537 65.0016 80.0505 65.0016 67.5C65.0016 49.5798 50.4226 35 32.5008 35Z" fill="#0C54A6" stroke="#0C54A6" stroke-width="1.2"/>
</g>
<defs>
<clipPath id="clip0_701_288">
<rect width="65.0016" height="100" fill="white"/>
</clipPath>
</defs>
</svg>
