<svg width="27" height="26" viewBox="0 0 27 26" fill="none" xmlns="http://www.w3.org/2000/svg">
<path d="M22.3945 2.41324H18.888V1.29345C18.888 0.765745 18.4718 0.337891 17.9584 0.337891C17.445 0.337891 17.0288 0.765745 17.0288 1.29345V2.41324H9.97123V1.29345C9.97123 0.765745 9.55499 0.337891 9.04161 0.337891C8.52823 0.337891 8.11198 0.765745 8.11198 1.29345V2.41324H4.60546C2.06578 2.41324 0 4.53688 0 7.1474V20.5296C0 23.1056 2.03855 25.201 4.54418 25.201H22.4558C24.9614 25.201 27 23.1056 27 20.5296V7.1474C27 4.53688 24.9342 2.41324 22.3945 2.41324ZM4.60546 4.32435H8.11198V4.87888C8.11198 5.40659 8.52823 5.83444 9.04161 5.83444C9.55499 5.83444 9.97123 5.40659 9.97123 4.87888V4.32435H17.0288V4.87888C17.0288 5.40659 17.445 5.83444 17.9584 5.83444C18.4718 5.83444 18.888 5.40659 18.888 4.87888V4.32435H22.3945C23.9088 4.32435 25.1407 5.59065 25.1407 7.1474V8.05373H1.85925V7.1474C1.85925 5.59065 3.09119 4.32435 4.60546 4.32435ZM22.4558 23.2899H4.54418C3.0635 23.2899 1.85925 22.0516 1.85925 20.5296V9.96484H25.1407V20.5296C25.1407 22.0516 23.9365 23.2899 22.4558 23.2899Z" fill="#9E9E9E"/>
<path d="M7.14142 12.7695H5.85858C5.38443 12.7695 5 13.2334 5 13.8055C5 14.3776 5.38443 14.8415 5.85858 14.8415H7.14142C7.61557 14.8415 8 14.3776 8 13.8055C8 13.2334 7.61557 12.7695 7.14142 12.7695Z" fill="#9E9E9E"/>
<path d="M14.1414 12.7695H12.8586C12.3844 12.7695 12 13.2334 12 13.8055C12 14.3776 12.3844 14.8415 12.8586 14.8415H14.1414C14.6156 14.8415 15 14.3776 15 13.8055C15 13.2334 14.6156 12.7695 14.1414 12.7695Z" fill="#9E9E9E"/>
<path d="M21.1414 12.7695H19.8586C19.3844 12.7695 19 13.2334 19 13.8055C19 14.3776 19.3844 14.8415 19.8586 14.8415H21.1414C21.6156 14.8415 22 14.3776 22 13.8055C22 13.2334 21.6156 12.7695 21.1414 12.7695Z" fill="#9E9E9E"/>
<path d="M7.14142 17.9492H5.85858C5.38443 17.9492 5 18.4131 5 18.9852C5 19.5573 5.38443 20.0211 5.85858 20.0211H7.14142C7.61557 20.0211 8 19.5573 8 18.9852C8 18.4131 7.61557 17.9492 7.14142 17.9492Z" fill="#9E9E9E"/>
<path d="M14.1414 17.9492H12.8586C12.3844 17.9492 12 18.4131 12 18.9852C12 19.5573 12.3844 20.0211 12.8586 20.0211H14.1414C14.6156 20.0211 15 19.5573 15 18.9852C15 18.4131 14.6156 17.9492 14.1414 17.9492Z" fill="#9E9E9E"/>
<path d="M21.1414 17.9492H19.8586C19.3844 17.9492 19 18.4131 19 18.9852C19 19.5573 19.3844 20.0211 19.8586 20.0211H21.1414C21.6156 20.0211 22 19.5573 22 18.9852C22 18.4131 21.6156 17.9492 21.1414 17.9492Z" fill="#9E9E9E"/>
</svg>
