<svg width="25" height="22" viewBox="0 0 25 22" fill="none" xmlns="http://www.w3.org/2000/svg">
<path d="M20.4258 1.79403H17.2275V0.826029C17.2275 0.369858 16.8479 0 16.3796 0C15.9114 0 15.5317 0.369858 15.5317 0.826029V1.79403H9.09464V0.826029C9.09464 0.369858 8.71499 0 8.24674 0C7.77849 0 7.39884 0.369858 7.39884 0.826029V1.79403H4.20058C1.88418 1.79403 0 3.62981 0 5.88647V17.4547C0 19.6815 1.85934 21.4929 4.14469 21.4929H20.4817C22.767 21.4929 24.6264 19.6815 24.6264 17.4547V5.88647C24.6264 3.62981 22.7422 1.79403 20.4258 1.79403ZM4.20058 3.44609H7.39884V3.92545C7.39884 4.38163 7.77849 4.75148 8.24674 4.75148C8.71499 4.75148 9.09464 4.38163 9.09464 3.92545V3.44609H15.5317V3.92545C15.5317 4.38163 15.9114 4.75148 16.3796 4.75148C16.8479 4.75148 17.2275 4.38163 17.2275 3.92545V3.44609H20.4258C21.8069 3.44609 22.9306 4.54074 22.9306 5.88647V6.66995H1.6958V5.88647C1.6958 4.54074 2.81943 3.44609 4.20058 3.44609ZM20.4817 19.8408H4.14469C2.79418 19.8408 1.6958 18.7704 1.6958 17.4547V8.322H22.9306V17.4547C22.9306 18.7704 21.8322 19.8408 20.4817 19.8408Z" fill="#9E9E9E"/>
<path d="M6.51371 10.7465H5.34365C4.91118 10.7465 4.56055 11.1474 4.56055 11.642C4.56055 12.1366 4.91118 12.5375 5.34365 12.5375H6.51371C6.94617 12.5375 7.29681 12.1366 7.29681 11.642C7.29681 11.1474 6.94617 10.7465 6.51371 10.7465Z" fill="#9E9E9E"/>
<path d="M12.8985 10.7465H11.7284C11.2959 10.7465 10.9453 11.1474 10.9453 11.642C10.9453 12.1366 11.2959 12.5375 11.7284 12.5375H12.8985C13.3309 12.5375 13.6816 12.1366 13.6816 11.642C13.6816 11.1474 13.3309 10.7465 12.8985 10.7465Z" fill="#9E9E9E"/>
<path d="M19.2832 10.7465H18.1132C17.6807 10.7465 17.3301 11.1474 17.3301 11.642C17.3301 12.1366 17.6807 12.5375 18.1132 12.5375H19.2832C19.7157 12.5375 20.0663 12.1366 20.0663 11.642C20.0663 11.1474 19.7157 10.7465 19.2832 10.7465Z" fill="#9E9E9E"/>
<path d="M6.51371 15.2242H5.34365C4.91118 15.2242 4.56055 15.6251 4.56055 16.1197C4.56055 16.6142 4.91118 17.0152 5.34365 17.0152H6.51371C6.94617 17.0152 7.29681 16.6142 7.29681 16.1197C7.29681 15.6251 6.94617 15.2242 6.51371 15.2242Z" fill="#9E9E9E"/>
<path d="M12.8985 15.2242H11.7284C11.2959 15.2242 10.9453 15.6251 10.9453 16.1197C10.9453 16.6142 11.2959 17.0152 11.7284 17.0152H12.8985C13.3309 17.0152 13.6816 16.6142 13.6816 16.1197C13.6816 15.6251 13.3309 15.2242 12.8985 15.2242Z" fill="#9E9E9E"/>
<path d="M19.2832 15.2242H18.1132C17.6807 15.2242 17.3301 15.6251 17.3301 16.1197C17.3301 16.6142 17.6807 17.0152 18.1132 17.0152H19.2832C19.7157 17.0152 20.0663 16.6142 20.0663 16.1197C20.0663 15.6251 19.7157 15.2242 19.2832 15.2242Z" fill="#9E9E9E"/>
</svg>
