<svg width="24" height="22" viewBox="0 0 24 22" fill="none" xmlns="http://www.w3.org/2000/svg">
<path d="M19.6875 1.79403H16.6048V0.826029C16.6048 0.369858 16.2389 0 15.7876 0C15.3363 0 14.9703 0.369858 14.9703 0.826029V1.79403H8.76592V0.826029C8.76592 0.369858 8.39999 0 7.94867 0C7.49734 0 7.13141 0.369858 7.13141 0.826029V1.79403H4.04876C1.81607 1.79403 0 3.62981 0 5.88647V17.4547C0 19.6815 1.79213 21.4929 3.99488 21.4929H19.7414C21.9441 21.4929 23.7363 19.6815 23.7363 17.4547V5.88647C23.7363 3.62981 21.9202 1.79403 19.6875 1.79403ZM4.04876 3.44609H7.13141V3.92545C7.13141 4.38163 7.49734 4.75148 7.94867 4.75148C8.39999 4.75148 8.76592 4.38163 8.76592 3.92545V3.44609H14.9703V3.92545C14.9703 4.38163 15.3363 4.75148 15.7876 4.75148C16.2389 4.75148 16.6048 4.38163 16.6048 3.92545V3.44609H19.6875C21.0187 3.44609 22.1018 4.54074 22.1018 5.88647V6.66995H1.63451V5.88647C1.63451 4.54074 2.71753 3.44609 4.04876 3.44609ZM19.7414 19.8408H3.99488C2.69319 19.8408 1.63451 18.7704 1.63451 17.4547V8.322H22.1018V17.4547C22.1018 18.7704 21.0431 19.8408 19.7414 19.8408Z" fill="#9E9E9E"/>
<path d="M6.27807 10.7465H5.1503C4.73347 10.7465 4.39551 11.1474 4.39551 11.642C4.39551 12.1366 4.73347 12.5375 5.1503 12.5375H6.27807C6.69491 12.5375 7.03287 12.1366 7.03287 11.642C7.03287 11.1474 6.69491 10.7465 6.27807 10.7465Z" fill="#9E9E9E"/>
<path d="M12.4324 10.7465H11.3046C10.8878 10.7465 10.5498 11.1474 10.5498 11.642C10.5498 12.1366 10.8878 12.5375 11.3046 12.5375H12.4324C12.8492 12.5375 13.1872 12.1366 13.1872 11.642C13.1872 11.1474 12.8492 10.7465 12.4324 10.7465Z" fill="#9E9E9E"/>
<path d="M18.5857 10.7465H17.4579C17.0411 10.7465 16.7031 11.1474 16.7031 11.642C16.7031 12.1366 17.0411 12.5375 17.4579 12.5375H18.5857C19.0025 12.5375 19.3405 12.1366 19.3405 11.642C19.3405 11.1474 19.0025 10.7465 18.5857 10.7465Z" fill="#9E9E9E"/>
<path d="M6.27807 15.2242H5.1503C4.73347 15.2242 4.39551 15.6251 4.39551 16.1197C4.39551 16.6142 4.73347 17.0152 5.1503 17.0152H6.27807C6.69491 17.0152 7.03287 16.6142 7.03287 16.1197C7.03287 15.6251 6.69491 15.2242 6.27807 15.2242Z" fill="#9E9E9E"/>
<path d="M11.3046 15.2242C10.8878 15.2242 10.5498 15.6251 10.5498 16.1197C10.5498 16.6142 10.8878 17.0152 11.3046 17.0152H12.4324C12.8492 17.0152 13.1872 16.6142 13.1872 16.1197C13.1872 15.6251 11.7214 15.2242 11.3046 15.2242Z" fill="#9E9E9E"/>
<path d="M18.5857 15.2242H17.4579C17.0411 15.2242 16.7031 15.6251 16.7031 16.1197C16.7031 16.6142 17.0411 17.0152 17.4579 17.0152H18.5857C19.0025 17.0152 19.3405 16.6142 19.3405 16.1197C19.3405 15.6251 19.0025 15.2242 18.5857 15.2242Z" fill="#9E9E9E"/>
</svg>
