<svg width="74" height="28" viewBox="0 0 74 28" fill="none" xmlns="http://www.w3.org/2000/svg">
<path d="M71.5956 4.07031H69.6971L50.6445 25.3665H52.543L71.5956 4.07031Z" fill="#5A5A5A" stroke="#5D5D5D"/>
<path d="M56.9491 4.10254H50.7451L65.7634 25.5621H72.2725L56.9491 4.10254Z" fill="#5A5A5A" stroke="#5D5D5D"/>
<path d="M56.1707 5.50781H53.2891L66.7479 24.093H69.6973L56.1707 5.50781Z" fill="#5A5A5A" stroke="white"/>
<ellipse cx="13.6529" cy="13.5332" rx="13.6529" ry="13.5332" fill="#5A5A5A"/>
<path d="M11.5293 8.63726V10.8928C15.7769 10.8928 15.7769 11.0432 15.7769 10.8928C15.7769 9.81014 16.8893 9.23873 17.4456 9.08836H19.7211V5.47951C19.3671 5.42938 18.022 5.35921 15.4735 5.47951C12.9249 5.5998 11.7821 7.6348 11.5293 8.63726Z" fill="white"/>
<rect x="7.88867" y="13.5996" width="11.2257" height="3.90959" fill="white"/>
<rect x="11.5293" y="10.8926" width="4.24758" height="16.2399" fill="white"/>
</svg>
