<svg width="1240" height="34" viewBox="0 0 1240 34" fill="none" xmlns="http://www.w3.org/2000/svg">
<path d="M1223.34 33.3477L1237.67 21.4164C1238.31 20.8871 1238.82 20.2234 1239.18 19.4725C1239.53 18.7217 1239.71 17.9023 1239.71 17.0727C1239.71 16.243 1239.53 15.4236 1239.18 14.6728C1238.82 13.922 1238.31 13.2583 1237.67 12.7289L1223.34 0.79768C1222.77 0.318913 1222.02 0.0885735 1221.28 0.157341C1220.53 0.226109 1219.84 0.588345 1219.37 1.16436C1218.89 1.74038 1218.66 2.483 1218.72 3.22885C1218.79 3.97469 1219.16 4.66267 1219.73 5.14144L1234.06 17.0727L1219.73 29.0039C1219.16 29.4827 1218.79 30.1707 1218.72 30.9165C1218.66 31.6623 1218.89 32.405 1219.37 32.981C1219.84 33.557 1220.53 33.9192 1221.28 33.988C1222.02 34.0568 1222.77 33.8264 1223.34 33.3477Z" fill="black"/>
<path d="M20.2614 28.2759L5.85123 16.6463L20.2614 5.01675C20.5816 4.75825 20.8391 4.43455 21.0156 4.06866C21.1921 3.70277 21.2833 3.30368 21.2826 2.89978C21.2839 2.2574 21.053 1.63486 20.6302 1.14022C20.392 0.861832 20.0996 0.631706 19.7695 0.463032C19.4395 0.294357 19.0784 0.190441 18.7068 0.157238C18.3353 0.124039 17.9606 0.162209 17.6044 0.269554C17.2481 0.3769 16.9171 0.551311 16.6305 0.78281L2.22032 12.4124C1.61116 12.9484 1.12441 13.602 0.791307 14.3311C0.458208 15.0603 0.286133 15.8489 0.286133 16.6463C0.286133 17.4438 0.458208 18.2324 0.791307 18.9615C1.12441 19.6907 1.61116 20.3442 2.22032 20.8803L16.6305 32.5098C17.2098 32.9765 17.9566 33.201 18.7067 33.134C19.4568 33.067 20.1487 32.7139 20.6302 32.1524C21.1116 31.591 21.3433 30.8671 21.2741 30.1402C21.205 29.4132 20.8407 28.7426 20.2614 28.2759Z" fill="black"/>
</svg>
