<svg width="1240" height="34" viewBox="0 0 1240 34" fill="none" xmlns="http://www.w3.org/2000/svg">
<path d="M1223.06 33.2022L1237.39 21.271C1238.02 20.7416 1238.54 20.0779 1238.89 19.3271C1239.24 18.5763 1239.43 17.7569 1239.43 16.9272C1239.43 16.0976 1239.24 15.2782 1238.89 14.5274C1238.54 13.7765 1238.02 13.1128 1237.39 12.5835L1223.06 0.652233C1222.48 0.173466 1221.74 -0.0568733 1220.99 0.0118942C1220.25 0.0806618 1219.56 0.442898 1219.08 1.01892C1218.6 1.59494 1218.37 2.33755 1218.44 3.0834C1218.51 3.82924 1218.87 4.51723 1219.45 4.99599L1233.78 16.9272L1219.45 28.8585C1218.87 29.3372 1218.51 30.0252 1218.44 30.7711C1218.37 31.5169 1218.6 32.2595 1219.08 32.8355C1219.56 33.4116 1220.25 33.7738 1220.99 33.8426C1221.74 33.9113 1222.48 33.681 1223.06 33.2022Z" fill="black"/>
<path d="M19.9753 28.1303L5.5651 16.5007L19.9753 4.87112C20.2955 4.61262 20.553 4.28892 20.7295 3.92303C20.906 3.55714 20.9971 3.15805 20.9964 2.75415C20.9977 2.11177 20.7669 1.48923 20.344 0.994595C20.1059 0.716202 19.8134 0.486076 19.4834 0.317402C19.1534 0.148727 18.7922 0.0448112 18.4207 0.0116081C18.0492 -0.0215912 17.6745 0.0165787 17.3182 0.123924C16.9619 0.23127 16.631 0.405682 16.3444 0.63718L1.93419 12.2668C1.32503 12.8028 0.838273 13.4564 0.505174 14.1855C0.172075 14.9147 0 15.7033 0 16.5007C0 17.2981 0.172075 18.0867 0.505174 18.8159C0.838273 19.545 1.32503 20.1986 1.93419 20.7346L16.3444 32.3642C16.9236 32.8309 17.6705 33.0554 18.4206 32.9884C19.1706 32.9213 19.8625 32.5683 20.344 32.0068C20.8255 31.4454 21.0572 30.7215 20.988 29.9945C20.9188 29.2675 20.5545 28.5969 19.9753 28.1303Z" fill="black"/>
</svg>
