<svg width="64" height="67" viewBox="0 0 64 67" fill="none" xmlns="http://www.w3.org/2000/svg">
<path d="M55.3531 33.4848L62.717 24.4209C62.941 24.1452 63.0101 23.7753 62.9006 23.4376C62.791 23.0998 62.5174 22.8409 62.1741 22.7495L50.8881 19.7444L51.5183 8.08304C51.5371 7.72852 51.3752 7.38796 51.0884 7.17999C50.8002 6.97133 50.4282 6.92178 50.096 7.05019L39.2002 11.2521L32.8552 1.44699C32.4678 0.851005 31.4838 0.851005 31.0965 1.44699L24.7515 11.2521L13.8556 7.04949C13.5234 6.92108 13.1494 6.97063 12.8633 7.17929C12.5764 7.38796 12.4138 7.72782 12.4334 8.08234L13.0635 19.7438L1.77828 22.7488C1.43493 22.8402 1.16137 23.0991 1.0518 23.4369C0.942234 23.7747 1.01063 24.1452 1.23464 24.4209L8.59927 33.4848L1.23464 42.5495C1.01063 42.8251 0.941536 43.195 1.0511 43.5328C1.16067 43.8705 1.43423 44.1294 1.77759 44.2209L13.0635 47.2252L12.4334 58.8866C12.4145 59.2411 12.5764 59.5817 12.8633 59.7896C13.1508 59.9983 13.5234 60.0479 13.8556 59.9195L24.7515 55.7169L31.0965 65.522C31.2898 65.8199 31.6206 66 31.9758 66C32.3311 66 32.6611 65.8199 32.8552 65.522L39.2002 55.7169L50.096 59.9195C50.4282 60.0479 50.8016 59.9983 51.0884 59.7896C51.3752 59.581 51.5378 59.2411 51.5183 58.8866L50.8881 47.2252L62.1741 44.2209C62.5174 44.1294 62.791 43.8705 62.9006 43.5328C63.0101 43.195 62.9417 42.8251 62.717 42.5495L55.3531 33.4848ZM49.5273 45.4212C49.0478 45.5489 48.7247 45.9948 48.7512 46.4896L49.3402 57.3855L39.1597 53.4593C38.6984 53.2813 38.1736 53.4509 37.9035 53.8668L31.9758 63.0271L26.0481 53.8661C25.8506 53.5605 25.5156 53.3881 25.1688 53.3881C25.0425 53.3881 24.9155 53.4104 24.792 53.4586L14.6114 57.3848L15.2004 46.4889C15.2269 45.9941 14.9031 45.5482 14.4244 45.4205L3.87957 42.6144L10.7606 34.145C11.0732 33.7605 11.0732 33.2092 10.7606 32.8246L3.87957 24.356L14.4237 21.5491C14.9031 21.4214 15.2262 20.9755 15.1997 20.4807L14.6107 9.58485L24.7913 13.5111C25.2546 13.6911 25.778 13.5194 26.0474 13.1035L31.9758 3.94257L37.9035 13.1035C38.1736 13.5201 38.6984 13.6918 39.1597 13.5111L49.3402 9.58485L48.7512 20.4807C48.7247 20.9755 49.0485 21.4214 49.5273 21.5491L60.0714 24.356L53.1918 32.8246C52.8791 33.2092 52.8791 33.7598 53.1918 34.145L60.0721 42.6144L49.5273 45.4212ZM43.4432 23.3022L19.2285 42.0107C18.7714 42.3638 18.687 43.0219 19.0401 43.479C19.246 43.7463 19.5558 43.8859 19.8692 43.8859C20.0925 43.8859 20.3186 43.8147 20.5084 43.6674L44.7224 24.9589C45.1795 24.6058 45.264 23.9477 44.9109 23.4906C44.5577 23.0328 43.8997 22.9484 43.4432 23.3022ZM26.8395 28.823C28.2841 28.823 29.6429 28.2599 30.6638 27.2382C32.7721 25.1292 32.7721 21.6978 30.6638 19.5895C29.6422 18.5678 28.2841 18.0054 26.8402 18.0054C25.3956 18.0054 24.0369 18.5678 23.0159 19.5895C20.9076 21.6978 20.9076 25.1292 23.0159 27.2382C24.0369 28.2599 25.3942 28.823 26.8395 28.823ZM24.4954 21.0697C25.1214 20.4437 25.9539 20.099 26.8395 20.099C27.7251 20.099 28.557 20.4437 29.183 21.0697C30.4754 22.3622 30.4754 24.4648 29.183 25.758C28.557 26.384 27.7237 26.7294 26.8388 26.7294C25.9539 26.7294 25.1214 26.3847 24.4954 25.758C23.2036 24.4655 23.2036 22.3629 24.4954 21.0697ZM37.1122 38.1466C35.6676 38.1466 34.3088 38.7098 33.2878 39.7315C31.1796 41.8404 31.1796 45.2719 33.2878 47.3801C34.3095 48.4018 35.6676 48.9643 37.1122 48.9643C38.5568 48.9643 39.9155 48.4018 40.9358 47.3801C43.0441 45.2712 43.0441 41.8404 40.9358 39.7315C39.9148 38.7098 38.5575 38.1466 37.1122 38.1466ZM39.4563 45.8999C38.8303 46.5259 37.9978 46.8707 37.1129 46.8707C36.2266 46.8707 35.3947 46.5259 34.7687 45.8999C33.4763 44.6075 33.4763 42.5048 34.7687 41.2116C35.3947 40.5856 36.228 40.2402 37.1129 40.2402C37.9978 40.2402 38.8303 40.5849 39.4563 41.2116C40.7481 42.5041 40.7481 44.6075 39.4563 45.8999Z" fill="#0C54A6" stroke="#0C54A6" stroke-width="1.5"/>
</svg>
